<svg fill="none" height="220" viewBox="0 0 1277 220" width="1277" xmlns="http://www.w3.org/2000/svg" xmlns:xlink="http://www.w3.org/1999/xlink"><filter id="a" color-interpolation-filters="sRGB" filterUnits="userSpaceOnUse" height="137.432" width="1186.51" x="41.4404" y="3.10834"><feFlood flood-opacity="0" result="BackgroundImageFix"/><feGaussianBlur in="BackgroundImageFix" stdDeviation="18.2915"/><feComposite in2="SourceAlpha" operator="in" result="effect1_backgroundBlur_13124_57796"/><feBlend in="SourceGraphic" in2="effect1_backgroundBlur_13124_57796" mode="normal" result="shape"/></filter><filter id="b" color-interpolation-filters="sRGB" filterUnits="userSpaceOnUse" height="83.7766" width="200.554" x="68.268" y="29.9359"><feFlood flood-opacity="0" result="BackgroundImageFix"/><feGaussianBlur in="BackgroundImageFix" stdDeviation="4.87774"/><feComposite in2="SourceAlpha" operator="in" result="effect1_backgroundBlur_13124_57796"/><feBlend in="SourceGraphic" in2="effect1_backgroundBlur_13124_57796" mode="normal" result="shape"/></filter><clipPath id="c"><path d="m0 0h1277v220h-1277z"/></clipPath><clipPath id="d"><path d="m977.969-384.602h743.856v521.918h-743.856z"/></clipPath><clipPath id="e"><path d="m19.4922-443.135h2109.62v660.934h-2109.62z"/></clipPath><clipPath id="f"><rect height="580.451" rx="58.5329" width="1230.41" x="19.4922" y="-443.135"/></clipPath><clipPath id="g"><path d="m19.4922-443.135h2109.62v660.934h-2109.62z"/></clipPath><mask id="h" fill="#fff"><path d="m0 0h1277v220h-1277z" fill="#fff"/></mask><g clip-path="url(#c)"><path d="m1004.8 103.529h717.02v58.533c0 32.327-26.2 58.533-58.53 58.533h-599.96c-32.33 0-58.53-26.206-58.53-58.533z" fill="#21d789"/><path d="m19.4922 103.529h1230.4078c0 32.327-26.2 58.533-58.53 58.533h-1113.3449c-32.3268 0-58.5329-26.206-58.5329-58.533z" fill="#6b57ff"/><path d="m974.309-326.069c0-32.327 26.201-58.533 58.531-58.533h630.45c32.33 0 58.53 26.207 58.53 58.533v429.599h-747.511z" fill="#21d789"/><g clip-path="url(#d)"><g clip-path="url(#e)"><path d="m221.918-555.322c591.226 0 376.149 241.415 522.029 311.778s340.593-105.636 485.923-17.683c145.32 87.954 247.17-81.357 358.92-51.123 111.74 30.234 56.15 154.469 2.4 283.0006-53.75 128.5314 110.62 176.1174 181.49 95.1849 103.01-117.6488-99.42-287.0825 105.52-280.4645 71.05 3.114 169.21 32.99 201.53-17.617 32.31-50.606 10.97-130.683 14.02-175.598" stroke="#00c7f7" stroke-width="54.8746"/></g></g><path d="m19.4922-384.602c0-32.327 26.2061-58.533 58.5329-58.533h1113.3449c32.33 0 58.53 26.206 58.53 58.533v488.132h-1230.4078z" fill="#6b57ff"/><g filter="url(#a)"><rect fill="#fa5c4a" height="63.4106" rx="31.7053" width="1113.34" x="78.0234" y="40.1191"/><g filter="url(#b)"><path d="m78.0234 71.8246c0-17.7467 14.3866-32.1332 32.1336-32.1332h116.777c17.747 0 32.133 14.3865 32.133 32.1332 0 17.7467-14.386 32.1334-32.133 32.1334h-116.777c-17.747 0-32.1336-14.3867-32.1336-32.1334z" fill="#fff"/><path d="m117.821 63.2521h13.17v1.8901h-5.561v15.182h-2.024v-15.182h-5.585zm14.703 4.5851h1.951v4.1827l-.817 1.2194c.032-1.1219.236-2.0974.61-2.9266.382-.8374.91-1.4796 1.585-1.9268.675-.4471 1.459-.6706 2.353-.6706h.439v2.0364h-.512c-.739 0-1.386.1423-1.939.4268-.552.2845-.979.691-1.28 1.2195-.293.5202-.439 1.134-.439 1.8413v7.0849h-1.951zm8.07 14.6576h1.854c.26 0 .508-.0853.743-.2561.236-.1626.419-.3821.549-.6585l.707-1.5365-4.816-12.2065h2.073l3.768 9.7311 3.609-9.7311h2.061l-5.67 14.3528c-.244.6259-.634 1.1218-1.171 1.4877-.528.3658-1.126.5487-1.792.5487h-1.915zm24.127-14.9503c.967 0 1.8.1789 2.499.5366.708.3496 1.248.8536 1.622 1.5121.382.6585.573 1.4389.573 2.3413v8.3897h-1.926v-4.6704h.731c0 .9918-.195 1.8657-.585 2.6218-.382.7479-.927 1.3251-1.634 1.7316-.707.4064-1.528.6097-2.463.6097-.797 0-1.516-.1545-2.159-.4634-.634-.3089-1.13-.7357-1.487-1.2804-.358-.5447-.537-1.1585-.537-1.8414 0-.6585.171-1.2682.512-1.8291.342-.561.813-1.0203 1.415-1.378.601-.3577 1.28-.5772 2.036-.6585l3.268-.3658c.277-.0325.496-.1423.659-.3292.162-.1952.26-.4838.293-.8658l.073 2.5608-4.012.439c-.431.0487-.817.1829-1.159.4024-.333.2113-.593.4878-.78.8292-.187.3333-.281.6991-.281 1.0975 0 .4065.11.7682.33 1.0853.219.3089.524.5487.914.7195.399.1707.854.256 1.366.256.675 0 1.276-.1382 1.805-.4146.528-.2845.939-.6788 1.231-1.1828.293-.5041.439-1.0853.439-1.7438v-3.9632c0-.4959-.113-.9268-.341-1.2926-.22-.3658-.537-.6463-.951-.8414-.415-.2032-.899-.3049-1.451-.3049-.561 0-1.057.0895-1.488.2683-.423.1707-.76.4024-1.012.6951s-.411.6057-.476.939h-1.951c.106-.6748.374-1.2845.805-1.8292.439-.5528 1.012-.9877 1.719-1.3048.708-.317 1.508-.4756 2.403-.4756zm13.727 16.9746c-.918 0-1.776-.1545-2.573-.4634-.788-.3089-1.455-.7439-2-1.3048-.536-.5528-.898-1.191-1.085-1.9145h2c.106.3658.333.691.683.9755.349.2927.78.5203 1.292.6829.521.1626 1.082.2439 1.683.2439.773 0 1.464-.1463 2.073-.439.618-.2927 1.098-.7032 1.439-1.2316.35-.5284.525-1.1422.525-1.8414v-.756l.097-3.4144 1.012-1.2439c-.016 1.1544-.256 2.1747-.719 3.0608-.455.878-1.098 1.5609-1.927 2.0487-.829.4796-1.788.7194-2.878.7194-1.13 0-2.13-.256-3-.7682-.869-.5122-1.544-1.2276-2.024-2.1462-.471-.9187-.707-1.9633-.707-3.134 0-1.1706.236-2.2153.707-3.1339.48-.9187 1.155-1.6341 2.024-2.1462.87-.5122 1.87-.7683 3-.7683 1.09 0 2.049.2439 2.878.7317.829.4796 1.472 1.1625 1.927 2.0486.463.878.703 1.9024.719 3.073l-1.012-1.0975v-4.4631h1.89l-.036 11.3895c0 1.0325-.256 1.9471-.769 2.7438-.512.8048-1.223 1.4308-2.134 1.8779-.902.4471-1.93.6707-3.085.6707zm0-6.5972c.789 0 1.488-.1788 2.098-.5365.617-.3659 1.097-.878 1.439-1.5365.341-.6585.516-1.4105.524-2.256-.008-.8454-.183-1.5974-.524-2.2559-.342-.6585-.822-1.1666-1.439-1.5243-.61-.3658-1.309-.5488-2.098-.5488-.796 0-1.504.183-2.122.5488-.617.3577-1.097.8658-1.439 1.5243-.333.6585-.5 1.4105-.5 2.2559 0 .8455.167 1.5975.5 2.256.342.6585.822 1.1706 1.439 1.5365.618.3577 1.326.5365 2.122.5365zm14.734-10.3774c.967 0 1.801.1789 2.5.5366.707.3496 1.248.8536 1.622 1.5121.382.6585.573 1.4389.573 2.3413v8.3897h-1.927v-4.6704h.732c0 .9918-.195 1.8657-.586 2.6218-.382.7479-.926 1.3251-1.634 1.7316-.707.4064-1.528.6097-2.463.6097-.797 0-1.516-.1545-2.158-.4634-.634-.3089-1.13-.7357-1.488-1.2804s-.536-1.1585-.536-1.8414c0-.6585.17-1.2682.512-1.8291.341-.561.813-1.0203 1.414-1.378.602-.3577 1.281-.5772 2.037-.6585l3.268-.3658c.276-.0325.496-.1423.658-.3292.163-.1952.26-.4838.293-.8658l.073 2.5608-4.012.439c-.431.0487-.817.1829-1.158.4024-.334.2113-.594.4878-.781.8292-.187.3333-.28.6991-.28 1.0975 0 .4065.11.7682.329 1.0853.22.3089.524.5487.915.7195.398.1707.853.256 1.365.256.675 0 1.277-.1382 1.805-.4146.529-.2845.939-.6788 1.232-1.1828.292-.5041.439-1.0853.439-1.7438v-3.9632c0-.4959-.114-.9268-.342-1.2926-.219-.3658-.536-.6463-.951-.8414-.414-.2032-.898-.3049-1.451-.3049-.561 0-1.057.0895-1.488.2683-.422.1707-.76.4024-1.012.6951s-.41.6057-.475.939h-1.951c.105-.6748.373-1.2845.804-1.8292.439-.5528 1.012-.9877 1.72-1.3048.707-.317 1.508-.4756 2.402-.4756zm8.435.2927h1.951v12.487h-1.951zm-.097-4.5851h2.146v2.2194h-2.146zm6.147 4.5851h1.878v5.4021h-.781c0-1.1544.2-2.1584.598-3.012.398-.8617.967-1.5243 1.707-1.9877s1.61-.6951 2.61-.6951c.894 0 1.687.1911 2.378.5732s1.231.9471 1.621 1.695c.399.7398.598 1.63.598 2.6705v7.841h-1.951v-7.6458c0-.7236-.13-1.3414-.39-1.8536-.252-.5121-.614-.9024-1.086-1.1706-.471-.2683-1.032-.4025-1.682-.4025-.7 0-1.317.1545-1.854.4634-.537.309-.955.7439-1.256 1.3048-.293.5528-.439 1.1869-.439 1.9023v7.402h-1.951z" fill="#19191c"/></g><path d="m438.191 72.7146h1.474l3.06 4.9143h-1.538zm-3.749-6.1826h4.486c.708 0 1.329.1321 1.863.3964.539.2642.954.6394 1.244 1.1255.296.4861.444 1.0516.444 1.6962 0 .6447-.151 1.2128-.452 1.7042-.296.4861-.716.864-1.26 1.1335-.544.2642-1.178.3963-1.902.3963h-3.107v4.6448h-1.316zm4.486 5.2235c.433 0 .811-.0819 1.134-.2457.327-.1638.578-.3963.753-.6975.179-.3012.269-.6553.269-1.0622 0-.4016-.09-.753-.269-1.0542-.175-.3012-.426-.531-.753-.6896-.323-.1638-.701-.2457-1.134-.2457h-3.17v3.9949zm9.091 6.0636c-.767 0-1.459-.1823-2.077-.5469s-1.104-.8719-1.459-1.5218c-.354-.65-.531-1.3819-.531-2.1956 0-.7927.18-1.5113.539-2.156.36-.6499.849-1.1572 1.467-1.5218.623-.3699 1.31-.5549 2.061-.5549.771 0 1.455.1797 2.053.539.597.354 1.062.8534 1.395 1.4981.332.6447.499 1.3818.499 2.2114v.2854h-6.753l.016-.325c.005.6288.124 1.181.356 1.6566.238.4703.566.8349.983 1.0938.418.259.901.3884 1.451.3884.491 0 .927-.0951 1.307-.2853.381-.1903.693-.4624.936-.8164h1.411c-.201.465-.479.8666-.833 1.2048-.348.3329-.763.5918-1.244.7767-.481.1797-1.007.2695-1.577.2695zm-2.806-4.9698h5.485v.7055c0-.6077-.114-1.1441-.341-1.6091-.222-.4703-.536-.8349-.943-1.0938s-.872-.3884-1.395-.3884c-.545 0-1.028.1268-1.451.3805-.423.2536-.753.6103-.991 1.07-.232.4597-.348.9882-.348 1.5853zm16.348 7.316h-1.268v-9.0677h.032v-1.5853h1.236zm-4.248-2.3462c-.756 0-1.43-.177-2.022-.531-.586-.3594-1.046-.8614-1.379-1.506-.327-.6447-.491-1.3819-.491-2.2115s.164-1.5667.491-2.2114c.333-.6447.793-1.1441 1.379-1.4981.592-.3593 1.266-.539 2.022-.539.697 0 1.313.1559 1.846.4677.534.3064.949.7398 1.245 1.2999.301.5548.457 1.1995.468 1.934h-.524v1.0938h.524c-.011.7345-.167 1.3819-.468 1.942-.296.5548-.711.9881-1.245 1.2999-.533.3065-1.149.4597-1.846.4597zm.198-1.1493c.544 0 1.028-.1294 1.45-.3884.423-.2642.751-.6288.983-1.0938.238-.4703.357-1.0093.357-1.617s-.119-1.144-.357-1.609c-.232-.4703-.56-.8349-.983-1.0939-.422-.2642-.906-.3963-1.45-.3963-.539 0-1.017.1321-1.435.3963-.417.259-.742.6236-.975 1.0939-.232.465-.349 1.0013-.349 1.609s.117 1.1467.349 1.617c.233.465.558.8296.975 1.0938.418.259.896.3884 1.435.3884zm13.336.9591h-1.22v-3.5114h.507c0 .7504-.129 1.4056-.388 1.9658-.259.5548-.629.9828-1.11 1.284s-1.046.4518-1.696.4518c-.582 0-1.097-.1241-1.546-.3725s-.803-.613-1.062-1.0938c-.254-.4862-.38-1.0674-.38-1.7438v-5.0967h1.268v4.9699c0 .4702.082.8718.245 1.2048.17.3329.407.5865.714.7609.306.1744.671.2616 1.094.2616.454 0 .856-.1004 1.204-.3012.349-.2008.619-.4809.809-.8402.195-.3647.293-.7795.293-1.2445v-4.8113h1.268zm6.196.1902c-.766 0-1.458-.1823-2.077-.5469-.618-.3646-1.104-.8719-1.458-1.5218-.354-.65-.531-1.3819-.531-2.1956 0-.7927.179-1.5113.539-2.156.359-.6499.848-1.1572 1.466-1.5218.624-.3699 1.311-.5549 2.061-.5549.771 0 1.456.1797 2.053.539.597.354 1.062.8534 1.395 1.4981s.499 1.3818.499 2.2114v.2854h-6.753l.016-.325c.005.6288.124 1.181.357 1.6566.237.4703.565.8349.982 1.0938.418.259.901.3884 1.451.3884.491 0 .927-.0951 1.308-.2853.38-.1903.692-.4624.935-.8164h1.411c-.201.465-.478.8666-.832 1.2048-.349.3329-.764.5918-1.245.7767-.481.1797-1.006.2695-1.577.2695zm-2.806-4.9698h5.485v.7055c0-.6077-.114-1.1441-.341-1.6091-.222-.4703-.536-.8349-.943-1.0938s-.872-.3884-1.395-.3884c-.544 0-1.028.1268-1.451.3805-.422.2536-.753.6103-.99 1.07-.233.4597-.349.9882-.349 1.5853zm11.498 4.9698c-.624 0-1.179-.0977-1.665-.2932-.486-.2008-.872-.4835-1.157-.8482-.286-.3646-.444-.7899-.476-1.2761h1.268c.032.2695.138.5047.317.7055.18.2008.415.3566.706.4676s.621.1665.991.1665.697-.0582.983-.1744c.29-.1163.515-.2774.673-.4835.159-.2114.238-.4518.238-.7213 0-.1903-.042-.3646-.127-.5232-.079-.1585-.195-.2906-.348-.3963-.148-.1057-.328-.177-.539-.214l-1.752-.325c-.433-.0792-.811-.2219-1.134-.428-.317-.2114-.562-.4703-.737-.7768-.169-.3065-.253-.6473-.253-1.0225 0-.4438.121-.8428.364-1.1968.243-.3594.584-.6421 1.023-.8482.444-.206.951-.3091 1.522-.3091.586 0 1.101.0951 1.545.2854.444.1849.793.4544 1.046.8084.259.3488.407.7636.444 1.2445h-1.268c-.032-.2589-.127-.4835-.285-.6738-.159-.1955-.367-.3461-.626-.4518-.254-.1056-.539-.1585-.856-.1585-.328 0-.619.0555-.872.1665-.254.1057-.45.2589-.587.4597-.137.1955-.206.4201-.206.6737 0 .1903.04.3567.119.4994.084.1374.211.2536.38.3487.175.0952.399.1691.674.222l1.736.325c.412.0792.766.2272 1.062.4438.301.2114.529.4783.682.8006.158.3171.238.6658.238 1.0463 0 .4703-.138.893-.413 1.2682-.269.3752-.642.6684-1.117.8798-.476.2061-1.007.3091-1.593.3091zm7.766-.1902c-.386 0-.737-.0819-1.054-.2457-.312-.1691-.558-.399-.737-.6896-.18-.2959-.27-.6235-.27-.9829l-.008-5.0728h-1.426l.008-1.1256h.879c.201 0 .362-.0634.484-.1902.127-.1268.19-.288.19-.4835v-1.3078h1.142v1.9815h2.195l-.008 1.1256h-2.195l.008 4.9936c0 .2483.081.4571.245.6262.169.1638.378.2457.626.2457h1.316v1.1255zm10.654 0c-.385 0-.737-.0819-1.054-.2457-.311-.1691-.557-.399-.737-.6896-.18-.2959-.269-.6235-.269-.9829l-.008-5.0728h-1.427l.008-1.1256h.88c.201 0 .362-.0634.483-.1902.127-.1268.19-.288.19-.4835v-1.3078h1.142v1.9815h2.195l-.007 1.1256h-2.196l.008 4.9936c0 .2483.082.4571.246.6262.169.1638.377.2457.626.2457h1.316v1.1255zm3.445-8.1166h1.269v8.1166h-1.269zm-.063-2.9803h1.395v1.4426h-1.395zm4.067 2.9803h1.221v3.5114h-.428c0-.7609.116-1.4188.348-1.9736.238-.5549.579-.9803 1.023-1.2762.444-.3012.972-.4518 1.585-.4518.576 0 1.081.1321 1.514.3963.433.259.769.6289 1.007 1.1097.238.4809.356 1.041.356 1.6804v5.1204h-1.268v-5.0649c0-.4439-.076-.827-.23-1.1493-.148-.3277-.367-.5787-.658-.753-.285-.1744-.628-.2616-1.03-.2616-.439 0-.822.0978-1.149.2933-.328.1955-.582.4755-.761.8402-.175.3646-.262.7926-.262 1.284v4.8113h-1.268zm10.716 3.0517c0-.4439-.076-.827-.229-1.1493-.148-.3277-.365-.5787-.65-.753-.286-.1744-.632-.2616-1.039-.2616-.433 0-.814.1004-1.141.3012-.328.1955-.581.4756-.761.8402-.18.3593-.27.7847-.27 1.2761l-.713.2061c0-.7292.127-1.3739.381-1.934.253-.5601.615-.9935 1.085-1.2999.476-.3118 1.028-.4677 1.657-.4677.576 0 1.086.1321 1.53.3963.449.259.798.6289 1.046 1.1097.248.4809.373 1.041.373 1.6804v5.1204h-1.269zm7.192 5.2551c-.766 0-1.458-.1823-2.076-.5469-.619-.3646-1.105-.8719-1.459-1.5218-.354-.65-.531-1.3819-.531-2.1956 0-.7927.18-1.5113.539-2.156.36-.6499.848-1.1572 1.467-1.5218.623-.3699 1.31-.5549 2.06-.5549.772 0 1.456.1797 2.053.539.597.354 1.062.8534 1.395 1.4981s.5 1.3818.5 2.2114v.2854h-6.753l.015-.325c.006.6288.125 1.181.357 1.6566.238.4703.565.8349.983 1.0938.417.259.901.3884 1.45.3884.492 0 .928-.0951 1.308-.2853.381-.1903.693-.4624.936-.8164h1.41c-.2.465-.478.8666-.832 1.2048-.349.3329-.763.5918-1.244.7767-.481.1797-1.007.2695-1.578.2695zm-2.805-4.9698h5.485v.7055c0-.6077-.114-1.1441-.341-1.6091-.222-.4703-.537-.8349-.944-1.0938-.406-.2589-.871-.3884-1.395-.3884-.544 0-1.027.1268-1.45.3805-.423.2536-.753.6103-.991 1.07-.232.4597-.349.9882-.349 1.5853zm12.345 4.9698c-.777 0-1.482-.1849-2.116-.5548-.629-.3699-1.123-.8772-1.482-1.5219-.36-.6499-.539-1.3739-.539-2.1718s.179-1.5192.539-2.1639c.359-.6499.853-1.1599 1.482-1.5297.634-.3699 1.339-.5549 2.116-.5549s1.48.185 2.109.5549c.634.3698 1.13.8798 1.49 1.5297.359.6447.539 1.366.539 2.1639s-.18 1.5219-.539 2.1718c-.36.6447-.856 1.152-1.49 1.5219-.629.3699-1.332.5548-2.109.5548zm0-1.1572c.55 0 1.036-.1295 1.459-.3884.428-.2642.758-.6288.99-1.0938.238-.4703.357-1.0067.357-1.6091 0-.6077-.119-1.144-.357-1.609-.232-.4703-.562-.8349-.99-1.0939-.423-.2642-.909-.3963-1.459-.3963-.549 0-1.038.1321-1.466.3963-.423.259-.753.6236-.991 1.0939-.233.465-.349 1.0013-.349 1.609 0 .6024.116 1.1388.349 1.6091.238.465.568.8296.991 1.0938.428.2589.917.3884 1.466.3884zm12.902.967h-1.22v-3.5114h.507c0 .7504-.13 1.4056-.389 1.9658-.258.5548-.628.9828-1.109 1.284s-1.046.4518-1.696.4518c-.582 0-1.097-.1241-1.546-.3725s-.803-.613-1.062-1.0938c-.254-.4862-.381-1.0674-.381-1.7438v-5.0967h1.269v4.9699c0 .4702.081.8718.245 1.2048.169.3329.407.5865.714.7609.306.1744.671.2616 1.093.2616.455 0 .857-.1004 1.205-.3012.349-.2008.619-.4809.809-.8402.195-.3647.293-.7795.293-1.2445v-4.8113h1.268zm5.467 0c-.386 0-.738-.0819-1.055-.2457-.311-.1691-.557-.399-.737-.6896-.179-.2959-.269-.6235-.269-.9829l-.008-5.0728h-1.427l.008-1.1256h.88c.201 0 .362-.0634.483-.1902.127-.1268.191-.288.191-.4835v-1.3078h1.141v1.9815h2.196l-.008 1.1256h-2.196l.008 4.9936c0 .2483.082.4571.246.6262.169.1638.377.2457.626.2457h1.316v1.1255zm3.445-1.7755h1.775v1.7755h-1.775zm9.428-9.3214h4.486c.708 0 1.329.1321 1.863.3964.539.2642.954.6394 1.244 1.1255.296.4861.444 1.0516.444 1.6962 0 .6447-.151 1.2128-.452 1.7042-.296.4861-.716.864-1.26 1.1335-.544.2642-1.178.3963-1.902.3963h-3.107v4.6448h-1.316zm4.486 5.2235c.433 0 .811-.0819 1.134-.2457.327-.1638.578-.3963.753-.6975.179-.3012.269-.6553.269-1.0622 0-.4016-.09-.753-.269-1.0542-.175-.3012-.426-.531-.753-.6896-.323-.1638-.701-.2457-1.134-.2457h-3.17v3.9949zm5.445-5.2235h1.268v11.0969h-1.268zm7.556 11.2871c-.766 0-1.458-.1823-2.076-.5469-.619-.3646-1.105-.8719-1.459-1.5218-.354-.65-.531-1.3819-.531-2.1956 0-.7927.18-1.5113.539-2.156.359-.6499.848-1.1572 1.466-1.5218.624-.3699 1.311-.5549 2.061-.5549.772 0 1.456.1797 2.053.539.597.354 1.062.8534 1.395 1.4981s.5 1.3818.5 2.2114v.2854h-6.754l.016-.325c.005.6288.124 1.181.357 1.6566.238.4703.565.8349.983 1.0938.417.259.901.3884 1.45.3884.492 0 .928-.0951 1.308-.2853.381-.1903.692-.4624.935-.8164h1.411c-.201.465-.478.8666-.832 1.2048-.349.3329-.764.5918-1.244.7767-.481.1797-1.007.2695-1.578.2695zm-2.806-4.9698h5.485v.7055c0-.6077-.113-1.1441-.34-1.6091-.222-.4703-.537-.8349-.944-1.0938s-.872-.3884-1.395-.3884c-.544 0-1.028.1268-1.45.3805-.423.2536-.753.6103-.991 1.07-.233.4597-.349.9882-.349 1.5853zm11.712-3.5272c.629 0 1.17.1163 1.625.3488.459.2272.811.5548 1.054.9828.248.4281.372.9353.372 1.5219v5.4533h-1.252v-3.0358h.476c0 .6447-.127 1.2128-.381 1.7042-.248.4861-.602.8613-1.062 1.1255s-.993.3963-1.601.3963c-.518 0-.986-.1004-1.403-.3012-.412-.2008-.734-.4782-.967-.8322-.232-.3541-.349-.753-.349-1.1969 0-.428.111-.8243.333-1.189.222-.3646.529-.6631.92-.8956s.832-.3752 1.323-.428l2.125-.2378c.179-.0212.322-.0925.428-.2141.105-.1268.169-.3144.19-.5627l.047 1.6645-2.607.2854c-.28.0317-.531.1189-.753.2615-.217.1374-.386.3171-.508.539-.121.2167-.182.4545-.182.7134 0 .2642.071.4993.214.7054.143.2008.341.3567.595.4677.258.111.554.1664.887.1664.439 0 .83-.0898 1.173-.2695.344-.1849.611-.4412.801-.7688s.285-.7055.285-1.1335v-2.576c0-.3224-.074-.6024-.222-.8402-.142-.2378-.348-.4201-.618-.5469-.269-.1321-.584-.1982-.943-.1982-.365 0-.687.0581-.967.1744-.275.1109-.494.2615-.658.4518-.164.1902-.267.3937-.309.6103h-1.268c.068-.4386.243-.8349.523-1.1889.285-.3594.658-.6421 1.117-.8482.46-.206.981-.3091 1.562-.3091zm8.202 8.497c-.624 0-1.179-.0977-1.665-.2932-.486-.2008-.872-.4835-1.157-.8482-.286-.3646-.444-.7899-.476-1.2761h1.268c.032.2695.138.5047.317.7055.18.2008.415.3566.706.4676.29.111.621.1665.991.1665s.697-.0582.983-.1744c.29-.1163.515-.2774.673-.4835.159-.2114.238-.4518.238-.7213 0-.1903-.042-.3646-.127-.5232-.079-.1585-.195-.2906-.349-.3963-.147-.1057-.327-.177-.539-.214l-1.751-.325c-.434-.0792-.811-.2219-1.134-.428-.317-.2114-.562-.4703-.737-.7768-.169-.3065-.254-.6473-.254-1.0225 0-.4438.122-.8428.365-1.1968.243-.3594.584-.6421 1.023-.8482.443-.206.951-.3091 1.521-.3091.587 0 1.102.0951 1.546.2854.444.1849.793.4544 1.046.8084.259.3488.407.7636.444 1.2445h-1.268c-.032-.2589-.127-.4835-.285-.6738-.159-.1955-.368-.3461-.626-.4518-.254-.1056-.539-.1585-.857-.1585-.327 0-.618.0555-.871.1665-.254.1057-.45.2589-.587.4597-.137.1955-.206.4201-.206.6737 0 .1903.04.3567.119.4994.084.1374.211.2536.38.3487.175.0952.399.1691.674.222l1.736.325c.412.0792.766.2272 1.062.4438.301.2114.528.4783.682.8006.158.3171.237.6658.237 1.0463 0 .4703-.137.893-.412 1.2682-.269.3752-.642.6684-1.117.8798-.476.2061-1.007.3091-1.593.3091zm8.635 0c-.767 0-1.459-.1823-2.077-.5469s-1.104-.8719-1.459-1.5218c-.354-.65-.531-1.3819-.531-2.1956 0-.7927.18-1.5113.539-2.156.36-.6499.849-1.1572 1.467-1.5218.623-.3699 1.31-.5549 2.061-.5549.771 0 1.455.1797 2.053.539.597.354 1.062.8534 1.395 1.4981.332.6447.499 1.3818.499 2.2114v.2854h-6.753l.016-.325c.005.6288.124 1.181.356 1.6566.238.4703.566.8349.983 1.0938.418.259.901.3884 1.451.3884.491 0 .927-.0951 1.307-.2853.381-.1903.693-.4624.936-.8164h1.411c-.201.465-.479.8666-.833 1.2048-.348.3329-.763.5918-1.244.7767-.481.1797-1.007.2695-1.577.2695zm-2.806-4.9698h5.485v.7055c0-.6077-.114-1.1441-.341-1.6091-.222-.4703-.536-.8349-.943-1.0938s-.872-.3884-1.395-.3884c-.545 0-1.028.1268-1.451.3805-.423.2536-.753.6103-.991 1.07-.232.4597-.348.9882-.348 1.5853zm15.781 4.7796c-.386 0-.738-.0819-1.055-.2457-.311-.1691-.557-.399-.737-.6896-.179-.2959-.269-.6235-.269-.9829l-.008-5.0728h-1.427l.008-1.1256h.88c.201 0 .362-.0634.483-.1902.127-.1268.191-.288.191-.4835v-1.3078h1.141v1.9815h2.195l-.007 1.1256h-2.196l.008 4.9936c0 .2483.082.4571.246.6262.169.1638.377.2457.626.2457h1.316v1.1255zm3.445-8.1166h1.268v2.7188l-.531.7926c.021-.7292.153-1.3633.396-1.9023.248-.5443.592-.9617 1.03-1.2524.439-.2906.949-.4359 1.53-.4359h.286v1.3237h-.333c-.481 0-.901.0925-1.261.2774-.359.1849-.636.4492-.832.7926-.19.3382-.285.7372-.285 1.1969v4.6052h-1.268zm5.316 9.5275h1.205c.169 0 .331-.0555.484-.1665.153-.1056.272-.2483.356-.428l.46-.9987-3.131-7.9343h1.348l2.449 6.3253 2.346-6.3253h1.34l-3.686 9.3293c-.159.4069-.412.7293-.761.967-.343.2378-.732.3567-1.165.3567h-1.245zm15.825-9.7177c.629 0 1.171.1163 1.625.3488.46.2272.811.5548 1.054.9828.249.4281.373.9353.373 1.5219v5.4533h-1.252v-3.0358h.475c0 .6447-.127 1.2128-.38 1.7042-.249.4861-.603.8613-1.062 1.1255-.46.2642-.994.3963-1.601.3963-.518 0-.986-.1004-1.403-.3012-.413-.2008-.735-.4782-.967-.8322-.233-.3541-.349-.753-.349-1.1969 0-.428.111-.8243.333-1.189.222-.3646.528-.6631.919-.8956s.832-.3752 1.324-.428l2.124-.2378c.18-.0212.322-.0925.428-.2141.106-.1268.169-.3144.19-.5627l.048 1.6645-2.608.2854c-.28.0317-.531.1189-.753.2615-.216.1374-.386.3171-.507.539-.122.2167-.182.4545-.182.7134 0 .2642.071.4993.214.7054.142.2008.34.3567.594.4677.259.111.555.1664.888.1664.438 0 .829-.0898 1.173-.2695.343-.1849.61-.4412.8-.7688.191-.3276.286-.7055.286-1.1335v-2.576c0-.3224-.074-.6024-.222-.8402-.143-.2378-.349-.4201-.618-.5469-.27-.1321-.584-.1982-.944-.1982-.364 0-.687.0581-.967.1744-.274.1109-.494.2615-.658.4518-.163.1902-.266.3937-.309.6103h-1.268c.069-.4386.243-.8349.523-1.1889.286-.3594.658-.6421 1.118-.8482.46-.206.98-.3091 1.561-.3091zm8.995 11.0335c-.597 0-1.155-.1004-1.673-.3012-.512-.2008-.946-.4835-1.3-.8482-.348-.3593-.584-.7741-.705-1.2444h1.3c.068.2378.216.4492.444.6341.227.1903.507.3382.84.4439.338.1057.703.1585 1.094.1585.502 0 .951-.0951 1.347-.2853.402-.1903.714-.4571.935-.8006.228-.3435.341-.7424.341-1.1969v-.4914l.064-2.2194.658-.8085c-.011.7504-.167 1.4136-.468 1.9896-.296.5707-.713 1.0145-1.252 1.3316-.539.3117-1.163.4676-1.871.4676-.735 0-1.385-.1664-1.95-.4993s-1.004-.7979-1.316-1.3951c-.306-.5971-.459-1.2761-.459-2.037 0-.761.153-1.44.459-2.0371.312-.5971.751-1.0621 1.316-1.395s1.215-.4994 1.95-.4994c.708 0 1.332.1585 1.871.4756.539.3118.956.7556 1.252 1.3316.301.5707.457 1.2365.468 1.9975l-.658-.7134v-2.9011h1.228l-.024 7.4032c0 .6711-.166 1.2656-.499 1.7835-.333.5231-.795.93-1.387 1.2206-.587.2906-1.255.436-2.005.436zm0-4.2882c.512 0 .967-.1162 1.363-.3487.402-.2378.713-.5707.935-.9988.222-.428.336-.9168.341-1.4663-.005-.5496-.119-1.0384-.341-1.4664s-.533-.7583-.935-.9908c-.396-.2378-.851-.3567-1.363-.3567-.518 0-.978.1189-1.38.3567-.401.2325-.713.5628-.935.9908-.216.428-.325.9168-.325 1.4664 0 .5495.109 1.0383.325 1.4663.222.4281.534.761.935.9988.402.2325.862.3487 1.38.3487zm9.648-6.7453c.629 0 1.17.1163 1.625.3488.46.2272.811.5548 1.054.9828.248.4281.373.9353.373 1.5219v5.4533h-1.253v-3.0358h.476c0 .6447-.127 1.2128-.381 1.7042-.248.4861-.602.8613-1.062 1.1255-.459.2642-.993.3963-1.601.3963-.518 0-.985-.1004-1.403-.3012-.412-.2008-.734-.4782-.967-.8322-.232-.3541-.349-.753-.349-1.1969 0-.428.111-.8243.333-1.189.222-.3646.529-.6631.92-.8956s.832-.3752 1.323-.428l2.125-.2378c.179-.0212.322-.0925.428-.2141.105-.1268.169-.3144.19-.5627l.048 1.6645-2.608.2854c-.28.0317-.531.1189-.753.2615-.217.1374-.386.3171-.508.539-.121.2167-.182.4545-.182.7134 0 .2642.072.4993.214.7054.143.2008.341.3567.595.4677.259.111.555.1664.887.1664.439 0 .83-.0898 1.174-.2695.343-.1849.61-.4412.8-.7688s.285-.7055.285-1.1335v-2.576c0-.3224-.074-.6024-.222-.8402-.142-.2378-.348-.4201-.618-.5469-.269-.1321-.584-.1982-.943-.1982-.365 0-.687.0581-.967.1744-.275.1109-.494.2615-.658.4518-.164.1902-.267.3937-.309.6103h-1.268c.068-.4386.243-.8349.523-1.1889.285-.3594.658-.6421 1.117-.8482.46-.206.981-.3091 1.562-.3091zm5.554.1902h1.268v8.1166h-1.268zm-.063-2.9803h1.395v1.4426h-1.395zm4.067 2.9803h1.22v3.5114h-.507c0-.7504.13-1.403.389-1.9578.258-.5601.628-.9908 1.109-1.292s1.047-.4518 1.696-.4518c.582 0 1.097.1242 1.546.3725.449.2484.801.6157 1.054 1.1018.259.4809.389 1.0595.389 1.7359v5.0966h-1.269v-4.9698c0-.4703-.084-.8719-.253-1.2048-.164-.3329-.399-.5866-.706-.7609-.306-.1744-.671-.2616-1.093-.2616-.455 0-.856.1004-1.205.3012s-.621.4835-.817.8481c-.19.3593-.285.7715-.285 1.2365v4.8113h-1.268zm17.261 8.3068c-.776 0-1.482-.1849-2.116-.5548-.629-.3699-1.123-.8772-1.482-1.5219-.36-.6499-.539-1.3739-.539-2.1718s.179-1.5192.539-2.1639c.359-.6499.853-1.1599 1.482-1.5297.634-.3699 1.34-.5549 2.116-.5549.777 0 1.48.185 2.109.5549.634.3698 1.131.8798 1.49 1.5297.359.6447.539 1.366.539 2.1639s-.18 1.5219-.539 2.1718c-.359.6447-.856 1.152-1.49 1.5219-.629.3699-1.332.5548-2.109.5548zm0-1.1572c.55 0 1.036-.1295 1.459-.3884.428-.2642.758-.6288.991-1.0938.237-.4703.356-1.0067.356-1.6091 0-.6077-.119-1.144-.356-1.609-.233-.4703-.563-.8349-.991-1.0939-.423-.2642-.909-.3963-1.459-.3963-.549 0-1.038.1321-1.466.3963-.423.259-.753.6236-.991 1.0939-.232.465-.349 1.0013-.349 1.609 0 .6024.117 1.1388.349 1.6091.238.465.568.8296.991 1.0938.428.2589.917.3884 1.466.3884zm6.236-7.1496h1.269v2.7188l-.531.7926c.021-.7292.153-1.3633.396-1.9023.248-.5443.592-.9617 1.03-1.2524.439-.2906.949-.4359 1.53-.4359h.285v1.3237h-.333c-.48 0-.9.0925-1.26.2774-.359.1849-.637.4492-.832.7926-.19.3382-.285.7372-.285 1.1969v4.6052h-1.269zm13.374 8.3068c-.766 0-1.458-.1849-2.076-.5548-.619-.3699-1.105-.8772-1.459-1.5219-.349-.6499-.523-1.3739-.523-2.1718s.174-1.5192.523-2.1639c.354-.6499.84-1.1599 1.459-1.5297.618-.3699 1.31-.5549 2.076-.5549.608 0 1.165.1163 1.673.3488.512.2272.943.5522 1.292.9749.354.4227.607.9142.761 1.4743h-1.387c-.127-.3382-.304-.6288-.531-.8719-.228-.2483-.497-.4386-.809-.5707-.306-.1374-.639-.2061-.999-.2061-.523 0-.993.1321-1.411.3963-.412.2643-.734.6315-.967 1.1018-.232.4703-.348 1.004-.348 1.6011 0 .5919.116 1.1229.348 1.5932.233.4703.555.8402.967 1.1097.418.2642.888.3963 1.411.3963.36 0 .693-.066.999-.1981.312-.1374.581-.3277.809-.5707.227-.2484.404-.5417.531-.8799h1.387c-.154.5602-.407 1.0516-.761 1.4743-.349.4228-.78.7504-1.292.9829-.508.2272-1.065.3408-1.673.3408zm5.712-11.2871h1.221v2.5602 1.4426 2.4889h-.508c0-.7504.13-1.403.389-1.9578.259-.5601.628-.9908 1.109-1.292s1.047-.4518 1.697-.4518c.581 0 1.096.1242 1.545.3725.449.2484.801.6157 1.054 1.1018.259.4809.389 1.0595.389 1.7359v5.0966h-1.268v-4.9698c0-.4703-.085-.8719-.254-1.2048-.164-.3329-.399-.5866-.706-.7609-.306-.1744-.671-.2616-1.093-.2616-.455 0-.856.1004-1.205.3012s-.621.4835-.817.8481c-.19.3593-.285.7715-.285 1.2365v4.8113h-1.268zm12.83 11.2871c-.766 0-1.458-.1823-2.076-.5469s-1.105-.8719-1.459-1.5218c-.354-.65-.531-1.3819-.531-2.1956 0-.7927.18-1.5113.539-2.156.36-.6499.848-1.1572 1.467-1.5218.623-.3699 1.31-.5549 2.06-.5549.772 0 1.456.1797 2.053.539.598.354 1.063.8534 1.395 1.4981.333.6447.5 1.3818.5 2.2114v.2854h-6.753l.015-.325c.006.6288.125 1.181.357 1.6566.238.4703.566.8349.983 1.0938.417.259.901.3884 1.45.3884.492 0 .928-.0951 1.308-.2853.381-.1903.693-.4624.936-.8164h1.411c-.201.465-.479.8666-.833 1.2048-.348.3329-.763.5918-1.244.7767-.481.1797-1.007.2695-1.578.2695zm-2.805-4.9698h5.485v.7055c0-.6077-.114-1.1441-.341-1.6091-.222-.4703-.537-.8349-.943-1.0938-.407-.2589-.872-.3884-1.396-.3884-.544 0-1.027.1268-1.45.3805-.423.2536-.753.6103-.991 1.07-.232.4597-.349.9882-.349 1.5853zm12.266 4.9698c-.766 0-1.458-.1849-2.077-.5548-.618-.3699-1.104-.8772-1.458-1.5219-.349-.6499-.523-1.3739-.523-2.1718s.174-1.5192.523-2.1639c.354-.6499.84-1.1599 1.458-1.5297.619-.3699 1.311-.5549 2.077-.5549.608 0 1.165.1163 1.672.3488.513.2272.944.5522 1.292.9749.354.4227.608.9142.761 1.4743h-1.387c-.127-.3382-.304-.6288-.531-.8719-.227-.2483-.497-.4386-.808-.5707-.307-.1374-.64-.2061-.999-.2061-.523 0-.993.1321-1.411.3963-.412.2643-.734.6315-.967 1.1018-.232.4703-.349 1.004-.349 1.6011 0 .5919.117 1.1229.349 1.5932.233.4703.555.8402.967 1.1097.418.2642.888.3963 1.411.3963.359 0 .692-.066.999-.1981.311-.1374.581-.3277.808-.5707.227-.2484.404-.5417.531-.8799h1.387c-.153.5602-.407 1.0516-.761 1.4743-.348.4228-.779.7504-1.292.9829-.507.2272-1.064.3408-1.672.3408zm5.711-11.2871h1.269v6.7771l3.678-3.7968h1.577l-3.678 3.7968 3.821 4.3198h-1.649l-3.749-4.2406v4.2406h-1.269zm12.776 0h1.268v11.0969h-1.268zm4.248 11.2871c-.697 0-1.313-.1532-1.847-.4597-.533-.3118-.951-.7451-1.252-1.2999-.296-.5601-.449-1.2075-.46-1.942h.523v-1.0938h-.523c.011-.7345.164-1.3792.46-1.934.301-.5601.719-.9935 1.252-1.2999.534-.3118 1.15-.4677 1.847-.4677.756 0 1.427.1797 2.014.539.591.354 1.051.8534 1.379 1.4981.333.6447.499 1.3818.499 2.2114s-.166 1.5668-.499 2.2115c-.328.6446-.788 1.1466-1.379 1.506-.587.354-1.258.531-2.014.531zm-.198-1.1493c.539 0 1.017-.1294 1.435-.3884.417-.2642.742-.6288.975-1.0938.232-.4703.348-1.0093.348-1.617s-.116-1.144-.348-1.609c-.233-.4703-.558-.8349-.975-1.0939-.418-.2642-.896-.3963-1.435-.3963-.544 0-1.028.1321-1.45.3963-.423.259-.753.6236-.991 1.0939-.233.465-.349 1.0013-.349 1.609s.116 1.1467.349 1.617c.238.465.568.8296.991 1.0938.422.259.906.3884 1.45.3884zm9.038-7.3477c.629 0 1.171.1163 1.625.3488.46.2272.811.5548 1.054.9828.249.4281.373.9353.373 1.5219v5.4533h-1.253v-3.0358h.476c0 .6447-.127 1.2128-.38 1.7042-.249.4861-.603.8613-1.063 1.1255-.459.2642-.993.3963-1.601.3963-.518 0-.985-.1004-1.403-.3012-.412-.2008-.734-.4782-.967-.8322-.232-.3541-.348-.753-.348-1.1969 0-.428.11-.8243.332-1.189.222-.3646.529-.6631.92-.8956s.832-.3752 1.324-.428l2.124-.2378c.18-.0212.322-.0925.428-.2141.106-.1268.169-.3144.19-.5627l.048 1.6645-2.608.2854c-.28.0317-.531.1189-.753.2615-.217.1374-.386.3171-.507.539-.122.2167-.183.4545-.183.7134 0 .2642.072.4993.214.7054.143.2008.341.3567.595.4677.259.111.555.1664.888.1664.438 0 .829-.0898 1.173-.2695.343-.1849.61-.4412.8-.7688s.286-.7055.286-1.1335v-2.576c0-.3224-.074-.6024-.222-.8402-.143-.2378-.349-.4201-.619-.5469-.269-.1321-.584-.1982-.943-.1982-.364 0-.687.0581-.967.1744-.275.1109-.494.2615-.658.4518-.164.1902-.267.3937-.309.6103h-1.268c.069-.4386.243-.8349.523-1.1889.285-.3594.658-.6421 1.118-.8482.459-.206.98-.3091 1.561-.3091zm8.971 8.497c-.767 0-1.459-.1849-2.077-.5548s-1.104-.8772-1.459-1.5219c-.348-.6499-.523-1.3739-.523-2.1718s.175-1.5192.523-2.1639c.355-.6499.841-1.1599 1.459-1.5297.618-.3699 1.31-.5549 2.077-.5549.607 0 1.165.1163 1.672.3488.513.2272.943.5522 1.292.9749.354.4227.608.9142.761 1.4743h-1.387c-.127-.3382-.304-.6288-.531-.8719-.227-.2483-.497-.4386-.809-.5707-.306-.1374-.639-.2061-.998-.2061-.524 0-.994.1321-1.411.3963-.412.2643-.735.6315-.967 1.1018-.233.4703-.349 1.004-.349 1.6011 0 .5919.116 1.1229.349 1.5932.232.4703.555.8402.967 1.1097.417.2642.887.3963 1.411.3963.359 0 .692-.066.998-.1981.312-.1374.582-.3277.809-.5707.227-.2484.404-.5417.531-.8799h1.387c-.153.5602-.407 1.0516-.761 1.4743-.349.4228-.779.7504-1.292.9829-.507.2272-1.065.3408-1.672.3408zm5.711-11.2871h1.268v6.7771l3.678-3.7968h1.578l-3.678 3.7968 3.82 4.3198h-1.648l-3.75-4.2406v4.2406h-1.268zm12.91 0h1.268v11.0969h-1.268zm6.994 2.7901c.628 0 1.17.1163 1.624.3488.46.2272.812.5548 1.055.9828.248.4281.372.9353.372 1.5219v5.4533h-1.252v-3.0358h.475c0 .6447-.126 1.2128-.38 1.7042-.248.4861-.602.8613-1.062 1.1255s-.994.3963-1.601.3963c-.518 0-.986-.1004-1.403-.3012-.412-.2008-.735-.4782-.967-.8322-.233-.3541-.349-.753-.349-1.1969 0-.428.111-.8243.333-1.189.222-.3646.528-.6631.919-.8956s.833-.3752 1.324-.428l2.124-.2378c.18-.0212.323-.0925.428-.2141.106-.1268.169-.3144.191-.5627l.047 1.6645-2.608.2854c-.28.0317-.531.1189-.753.2615-.216.1374-.385.3171-.507.539-.122.2167-.182.4545-.182.7134 0 .2642.071.4993.214.7054.142.2008.341.3567.594.4677.259.111.555.1664.888.1664.439 0 .83-.0898 1.173-.2695.344-.1849.61-.4412.801-.7688.19-.3276.285-.7055.285-1.1335v-2.576c0-.3224-.074-.6024-.222-.8402-.143-.2378-.349-.4201-.618-.5469-.27-.1321-.584-.1982-.943-.1982-.365 0-.687.0581-.967.1744-.275.1109-.495.2615-.658.4518-.164.1902-.267.3937-.309.6103h-1.269c.069-.4386.243-.8349.523-1.1889.286-.3594.658-.6421 1.118-.8482.46-.206.98-.3091 1.562-.3091zm8.249 8.3068c-.386 0-.737-.0819-1.054-.2457-.312-.1691-.558-.399-.738-.6896-.179-.2959-.269-.6235-.269-.9829l-.008-5.0728h-1.427l.008-1.1256h.88c.201 0 .362-.0634.483-.1902.127-.1268.191-.288.191-.4835v-1.3078h1.141v1.9815h2.196l-.008 1.1256h-2.196l.008 4.9936c0 .2483.082.4571.246.6262.169.1638.378.2457.626.2457h1.316v1.1255zm6.791.1902c-.766 0-1.458-.1823-2.076-.5469s-1.105-.8719-1.459-1.5218c-.354-.65-.531-1.3819-.531-2.1956 0-.7927.18-1.5113.539-2.156.36-.6499.848-1.1572 1.467-1.5218.623-.3699 1.31-.5549 2.06-.5549.772 0 1.456.1797 2.053.539.598.354 1.063.8534 1.395 1.4981.333.6447.5 1.3818.5 2.2114v.2854h-6.753l.015-.325c.006.6288.125 1.181.357 1.6566.238.4703.566.8349.983 1.0938.417.259.901.3884 1.45.3884.492 0 .928-.0951 1.308-.2853.381-.1903.693-.4624.936-.8164h1.411c-.201.465-.479.8666-.833 1.2048-.349.3329-.763.5918-1.244.7767-.481.1797-1.007.2695-1.578.2695zm-2.805-4.9698h5.485v.7055c0-.6077-.114-1.1441-.341-1.6091-.222-.4703-.537-.8349-.943-1.0938-.407-.2589-.872-.3884-1.396-.3884-.544 0-1.027.1268-1.45.3805-.423.2536-.753.6103-.991 1.07-.232.4597-.349.9882-.349 1.5853zm8.85-3.337h1.268v2.7188l-.531.7926c.021-.7292.153-1.3633.396-1.9023.249-.5443.592-.9617 1.031-1.2524.438-.2906.948-.4359 1.529-.4359h.286v1.3237h-.333c-.481 0-.901.0925-1.26.2774-.36.1849-.637.4492-.833.7926-.19.3382-.285.7372-.285 1.1969v4.6052h-1.268zm4.328 6.3411h1.776v1.7755h-1.776z" fill="#fff"/></g><g clip-path="url(#f)"><g clip-path="url(#g)"><path d="m221.918-555.322c591.226 0 376.149 241.415 522.029 311.778s340.593-105.636 485.923-17.683c145.32 87.954 247.17-81.357 358.92-51.123 111.74 30.234 56.15 154.469 2.4 283.0006-53.75 128.5314 110.62 176.1174 181.49 95.1849 103.01-117.6488-99.42-287.0825 105.52-280.4645 71.05 3.114 169.21 32.99 201.53-17.617 32.31-50.606 10.97-130.683 14.02-175.598" stroke="#5034ff" stroke-width="54.8746"/></g></g></g><path d="m0 3.24873h1277v-6.49746h-1277z" fill="#6c707e" mask="url(#h)"/></svg>