<svg width="1200" height="157" viewBox="0 0 1200 157" fill="none" xmlns="http://www.w3.org/2000/svg">
<rect width="1200" height="156.18" rx="12.2137" fill="#6B57FF"/>
<path d="M36.8374 57.8067C34.7319 57.8067 32.8265 57.3119 31.1211 56.3224C29.4262 55.3223 28.0893 53.9537 27.1102 52.2168C26.1417 50.4692 25.6575 48.5217 25.6575 46.3741C25.6575 44.2266 26.1417 42.2843 27.1102 40.5473C28.0893 38.7998 29.4262 37.4312 31.1211 36.4417C32.8265 35.4416 34.7319 34.9416 36.8374 34.9416C38.5954 34.9416 40.2114 35.2679 41.6852 35.9206C43.159 36.5628 44.3854 37.4734 45.3645 38.6524C46.354 39.8209 47.0278 41.1632 47.3857 42.6791H43.2485C42.9432 41.8369 42.48 41.1 41.8589 40.4684C41.2483 39.8367 40.5114 39.3525 39.6482 39.0156C38.7955 38.6787 37.8691 38.5103 36.869 38.5103C35.511 38.5103 34.2793 38.8524 33.1739 39.5367C32.0791 40.2104 31.2211 41.1474 30.6 42.3475C29.9789 43.537 29.6683 44.8793 29.6683 46.3741C29.6683 47.869 29.9789 49.2165 30.6 50.4166C31.2211 51.6062 32.0791 52.5431 33.1739 53.2274C34.2793 53.9011 35.511 54.238 36.869 54.238C37.8691 54.238 38.7955 54.0695 39.6482 53.7327C40.5114 53.3958 41.2483 52.9116 41.8589 52.2799C42.48 51.6483 42.9432 50.9114 43.2485 50.0692H47.3857C47.0278 51.5851 46.354 52.9326 45.3645 54.1117C44.3854 55.2802 43.159 56.1908 41.6852 56.8435C40.2114 57.4856 38.5954 57.8067 36.8374 57.8067ZM58.0973 57.8067C56.5077 57.8067 55.0602 57.4383 53.7548 56.7014C52.46 55.9644 51.4441 54.9538 50.7072 53.6695C49.9703 52.3747 49.6018 50.9324 49.6018 49.3428C49.6018 47.7532 49.9703 46.3162 50.7072 45.0319C51.4441 43.7371 52.46 42.7212 53.7548 41.9843C55.0602 41.2474 56.5077 40.8789 58.0973 40.8789C59.6974 40.8789 61.1449 41.2474 62.4398 41.9843C63.7346 42.7212 64.7505 43.7371 65.4874 45.0319C66.2243 46.3162 66.5928 47.7532 66.5928 49.3428C66.5928 50.9324 66.2243 52.3747 65.4874 53.6695C64.7505 54.9538 63.7294 55.9644 62.424 56.7014C61.1292 57.4383 59.6869 57.8067 58.0973 57.8067ZM58.0973 54.4748C59.0027 54.4748 59.8027 54.259 60.4975 53.8274C61.2028 53.3958 61.7503 52.7905 62.1398 52.0115C62.5293 51.2325 62.724 50.3429 62.724 49.3428C62.724 48.3322 62.5293 47.4427 62.1398 46.6742C61.7503 45.8951 61.2028 45.2898 60.4975 44.8582C59.8027 44.4161 59.0027 44.195 58.0973 44.195C57.192 44.195 56.3866 44.4108 55.6813 44.8424C54.9865 45.274 54.4444 45.8794 54.0549 46.6584C53.6653 47.4374 53.4706 48.3322 53.4706 49.3428C53.4706 50.3429 53.6653 51.2325 54.0549 52.0115C54.4444 52.7905 54.9865 53.3958 55.6813 53.8274C56.3866 54.259 57.192 54.4748 58.0973 54.4748ZM69.8289 41.2579H73.445V48.0006H72.4976C72.5081 46.5373 72.745 45.274 73.2082 44.2108C73.6714 43.137 74.3293 42.3159 75.182 41.7474C76.0453 41.1684 77.0611 40.8789 78.2297 40.8789C79.3771 40.8789 80.3667 41.1421 81.1983 41.6685C82.0405 42.1843 82.6879 42.9212 83.1406 43.8792C83.5933 44.8372 83.8196 45.953 83.8196 47.2268V57.4277H80.1719V47.669C80.1719 46.9426 80.0456 46.3162 79.793 45.7899C79.5508 45.2635 79.1929 44.8582 78.7192 44.574C78.256 44.2897 77.698 44.1476 77.0453 44.1476C76.34 44.1476 75.7242 44.3055 75.1978 44.6214C74.6715 44.9372 74.2662 45.3898 73.9819 45.9794C73.6977 46.5689 73.5556 47.2584 73.5556 48.048V57.4277H69.8289V41.2579ZM90.436 47.669C90.436 46.9426 90.3097 46.3162 90.057 45.7899C89.8149 45.2635 89.4622 44.8582 88.999 44.574C88.5358 44.2897 87.9779 44.1476 87.3252 44.1476C86.6304 44.1476 86.0146 44.3055 85.4777 44.6214C84.9513 44.9372 84.5407 45.3898 84.246 45.9794C83.9617 46.5689 83.8196 47.2584 83.8196 48.048L82.2721 48.0006C82.2721 46.5899 82.5248 45.3477 83.0301 44.274C83.5354 43.1896 84.2512 42.3527 85.1776 41.7632C86.104 41.1737 87.1883 40.8789 88.4306 40.8789C89.578 40.8789 90.5834 41.1421 91.4466 41.6685C92.3204 42.1843 92.9888 42.9212 93.452 43.8792C93.9258 44.8372 94.1626 45.953 94.1626 47.2268V57.4277H90.436V47.669ZM101.789 41.2579V44.4003H101.868V62.4808H98.1414V41.2579H101.789ZM107.379 57.8067C106.042 57.8067 104.868 57.512 103.858 56.9224C102.858 56.3329 102.079 55.5013 101.521 54.4275C100.963 53.3537 100.673 52.1062 100.652 50.685H101.773V48.0006H100.652C100.673 46.5794 100.963 45.3319 101.521 44.2582C102.079 43.1844 102.863 42.3527 103.874 41.7632C104.884 41.1737 106.053 40.8789 107.379 40.8789C108.821 40.8789 110.106 41.2421 111.232 41.9685C112.369 42.6843 113.259 43.6897 113.901 44.9845C114.543 46.2689 114.864 47.7216 114.864 49.3428C114.864 50.964 114.543 52.422 113.901 53.7169C113.259 55.0012 112.369 56.0066 111.232 56.7329C110.095 57.4488 108.811 57.8067 107.379 57.8067ZM106.463 54.4906C107.358 54.4906 108.148 54.2748 108.832 53.8432C109.527 53.4011 110.069 52.7958 110.458 52.0273C110.848 51.2482 111.043 50.3534 111.043 49.3428C111.043 48.3322 110.848 47.4427 110.458 46.6742C110.069 45.8951 109.527 45.2898 108.832 44.8582C108.148 44.4161 107.358 44.195 106.463 44.195C105.568 44.195 104.768 44.4161 104.063 44.8582C103.368 45.2898 102.826 45.8951 102.437 46.6742C102.058 47.4427 101.868 48.3322 101.868 49.3428C101.868 50.3534 102.058 51.2482 102.437 52.0273C102.826 52.7958 103.368 53.4011 104.063 53.8432C104.768 54.2748 105.568 54.4906 106.463 54.4906ZM118.286 35.3205H122.013V57.4277H118.286V35.3205ZM133.81 57.8067C132.231 57.8067 130.805 57.4435 129.531 56.7171C128.257 55.9908 127.257 54.9802 126.531 53.6853C125.804 52.3905 125.441 50.9324 125.441 49.3112C125.441 47.7216 125.804 46.2847 126.531 45.0003C127.268 43.716 128.273 42.7107 129.547 41.9843C130.831 41.2474 132.252 40.8789 133.81 40.8789C135.41 40.8789 136.826 41.2368 138.058 41.9527C139.3 42.6685 140.269 43.6686 140.964 44.953C141.658 46.2268 142.006 47.6848 142.006 49.327V50.2271H129.184L129.215 49.4218C129.215 50.485 129.41 51.4219 129.799 52.2325C130.189 53.0326 130.726 53.6537 131.41 54.0959C132.105 54.5275 132.91 54.7433 133.826 54.7433C134.626 54.7433 135.337 54.5959 135.958 54.3011C136.589 53.9959 137.111 53.559 137.521 52.9905H141.532C141.132 53.9801 140.563 54.8328 139.827 55.5486C139.1 56.2645 138.221 56.8224 137.19 57.2225C136.168 57.612 135.042 57.8067 133.81 57.8067ZM129.184 47.7479H138.295V49.1849C138.295 48.1427 138.111 47.2268 137.742 46.4373C137.374 45.6372 136.847 45.0214 136.163 44.5898C135.489 44.1476 134.705 43.9266 133.81 43.9266C132.905 43.9266 132.105 44.1424 131.41 44.574C130.715 45.0056 130.173 45.6162 129.784 46.4057C129.405 47.1847 129.215 48.0901 129.215 49.1217L129.184 47.7479ZM151.097 57.4277C150.234 57.4277 149.455 57.2435 148.76 56.8751C148.076 56.5066 147.539 55.996 147.149 55.3433C146.77 54.6907 146.581 53.9537 146.581 53.1326L146.565 44.495H143.723L143.739 41.2579H145.507C145.907 41.2579 146.228 41.1368 146.47 40.8947C146.712 40.6421 146.834 40.321 146.834 39.9315V37.3102H150.308V41.2579H154.603L154.587 44.495H150.292L150.308 52.6589C150.308 53.101 150.45 53.4695 150.734 53.7643C151.029 54.0485 151.397 54.1906 151.839 54.1906H154.587V57.4277H151.097ZM164.929 57.8067C163.35 57.8067 161.924 57.4435 160.65 56.7171C159.376 55.9908 158.376 54.9802 157.65 53.6853C156.923 52.3905 156.56 50.9324 156.56 49.3112C156.56 47.7216 156.923 46.2847 157.65 45.0003C158.387 43.716 159.392 42.7107 160.666 41.9843C161.95 41.2474 163.371 40.8789 164.929 40.8789C166.529 40.8789 167.945 41.2368 169.177 41.9527C170.419 42.6685 171.388 43.6686 172.083 44.953C172.777 46.2268 173.125 47.6848 173.125 49.327V50.2271H160.303L160.334 49.4218C160.334 50.485 160.529 51.4219 160.918 52.2325C161.308 53.0326 161.845 53.6537 162.529 54.0959C163.224 54.5275 164.029 54.7433 164.945 54.7433C165.745 54.7433 166.456 54.5959 167.077 54.3011C167.709 53.9959 168.23 53.559 168.64 52.9905H172.651C172.251 53.9801 171.683 54.8328 170.946 55.5486C170.219 56.2645 169.34 56.8224 168.309 57.2225C167.287 57.612 166.161 57.8067 164.929 57.8067ZM160.303 47.7479H169.414V49.1849C169.414 48.1427 169.23 47.2268 168.861 46.4373C168.493 45.6372 167.966 45.0214 167.282 44.5898C166.608 44.1476 165.824 43.9266 164.929 43.9266C164.024 43.9266 163.224 44.1424 162.529 44.574C161.834 45.0056 161.292 45.6162 160.903 46.4057C160.524 47.1847 160.334 48.0901 160.334 49.1217L160.303 47.7479ZM188.246 35.3205H191.973V57.4277H188.246V35.3205ZM182.735 57.8067C181.293 57.8067 180.003 57.4488 178.866 56.7329C177.74 56.0066 176.856 55.0012 176.213 53.7169C175.571 52.422 175.25 50.964 175.25 49.3428C175.25 47.7216 175.571 46.2689 176.213 44.9845C176.856 43.6897 177.74 42.6843 178.866 41.9685C180.003 41.2421 181.288 40.8789 182.719 40.8789C184.056 40.8789 185.23 41.1737 186.241 41.7632C187.251 42.3527 188.035 43.1844 188.593 44.2582C189.151 45.3319 189.436 46.5794 189.446 48.0006H188.341V50.685H189.446C189.436 52.1062 189.151 53.3537 188.593 54.4275C188.035 55.5013 187.251 56.3329 186.241 56.9224C185.24 57.512 184.072 57.8067 182.735 57.8067ZM183.635 54.4906C184.54 54.4906 185.34 54.2748 186.035 53.8432C186.73 53.4011 187.272 52.7958 187.662 52.0273C188.051 51.2482 188.246 50.3534 188.246 49.3428C188.246 48.3322 188.051 47.4427 187.662 46.6742C187.272 45.8951 186.73 45.2898 186.035 44.8582C185.34 44.4161 184.54 44.195 183.635 44.195C182.74 44.195 181.945 44.4161 181.251 44.8582C180.566 45.2898 180.03 45.8951 179.64 46.6742C179.261 47.4427 179.072 48.3322 179.072 49.3428C179.072 50.3534 179.261 51.2482 179.64 52.0273C180.03 52.7958 180.566 53.4011 181.251 53.8432C181.945 54.2748 182.74 54.4906 183.635 54.4906ZM196.279 52.9116H200.795V57.4277H196.279V52.9116ZM196.279 41.0052H200.795V45.5214H196.279V41.0052ZM211.872 38.7945V35.3205H227V38.6208L218.157 57.4277H213.893L222.784 38.7945H211.872ZM237.228 57.8067C235.838 57.8067 234.554 57.5435 233.375 57.0172C232.196 56.4803 231.233 55.7434 230.485 54.8065C229.738 53.8695 229.295 52.8221 229.159 51.6641H233.043C233.17 52.201 233.433 52.6852 233.833 53.1168C234.233 53.5379 234.722 53.8695 235.301 54.1117C235.891 54.3433 236.528 54.4591 237.212 54.4591C238.033 54.4591 238.765 54.2696 239.407 53.8906C240.06 53.5116 240.565 52.9905 240.923 52.3273C241.291 51.6535 241.476 50.8956 241.476 50.0534C241.476 49.2112 241.291 48.4585 240.923 47.7953C240.565 47.1216 240.06 46.5952 239.407 46.2162C238.765 45.8267 238.033 45.632 237.212 45.632C236.644 45.632 236.107 45.7267 235.601 45.9162C235.096 46.0952 234.654 46.3373 234.275 46.6426C233.906 46.9479 233.627 47.2795 233.438 47.6374H229.774L230.722 35.3205H244.192V38.8103H233.927L233.47 44.5582C233.743 44.1582 234.117 43.8055 234.591 43.5002C235.075 43.1949 235.622 42.958 236.233 42.7896C236.844 42.6212 237.475 42.537 238.128 42.537C239.507 42.537 240.749 42.8633 241.854 43.516C242.96 44.1687 243.823 45.0635 244.444 46.2004C245.065 47.3269 245.376 48.5954 245.376 50.006C245.376 51.4798 245.023 52.8115 244.318 54.0011C243.613 55.1907 242.639 56.1224 241.397 56.7961C240.165 57.4698 238.775 57.8067 237.228 57.8067ZM265.524 35.3205H268.856L252.686 57.4277H249.37L265.524 35.3205ZM253.286 45.6162C252.254 45.6162 251.328 45.3898 250.507 44.9372C249.696 44.4845 249.059 43.8529 248.596 43.0423C248.144 42.2317 247.917 41.3105 247.917 40.2789C247.917 39.2472 248.144 38.3261 248.596 37.5155C249.059 36.7049 249.696 36.0732 250.507 35.6206C251.328 35.1679 252.254 34.9416 253.286 34.9416C254.339 34.9416 255.27 35.1679 256.081 35.6206C256.902 36.0732 257.544 36.7049 258.008 37.5155C258.471 38.3261 258.702 39.2472 258.702 40.2789C258.702 41.3105 258.471 42.2317 258.008 43.0423C257.544 43.8529 256.902 44.4845 256.081 44.9372C255.27 45.3898 254.339 45.6162 253.286 45.6162ZM253.286 43.0581C253.802 43.0581 254.255 42.9423 254.644 42.7107C255.044 42.4685 255.355 42.1369 255.576 41.7158C255.797 41.2947 255.907 40.8158 255.907 40.2789C255.907 39.742 255.797 39.263 255.576 38.8419C255.355 38.4208 255.044 38.0945 254.644 37.8629C254.255 37.6207 253.802 37.4997 253.286 37.4997C252.791 37.4997 252.349 37.6207 251.96 37.8629C251.57 38.0945 251.265 38.4208 251.044 38.8419C250.823 39.263 250.712 39.742 250.712 40.2789C250.712 40.8158 250.823 41.2947 251.044 41.7158C251.265 42.1369 251.57 42.4685 251.96 42.7107C252.349 42.9423 252.791 43.0581 253.286 43.0581ZM264.94 57.8067C263.908 57.8067 262.982 57.5804 262.161 57.1277C261.35 56.675 260.713 56.0434 260.25 55.2328C259.797 54.4222 259.571 53.5011 259.571 52.4694C259.571 51.4377 259.797 50.5166 260.25 49.706C260.713 48.8954 261.35 48.2638 262.161 47.8111C262.982 47.3584 263.908 47.1321 264.94 47.1321C265.992 47.1321 266.929 47.3584 267.75 47.8111C268.582 48.2638 269.224 48.8954 269.677 49.706C270.14 50.5166 270.372 51.4377 270.372 52.4694C270.372 53.5011 270.14 54.4222 269.677 55.2328C269.224 56.0434 268.582 56.675 267.75 57.1277C266.929 57.5804 265.992 57.8067 264.94 57.8067ZM264.94 55.2486C265.456 55.2486 265.913 55.1328 266.314 54.9012C266.714 54.6591 267.024 54.3275 267.245 53.9064C267.466 53.4853 267.577 53.0063 267.577 52.4694C267.577 51.9325 267.466 51.4535 267.245 51.0324C267.024 50.6113 266.714 50.285 266.314 50.0534C265.913 49.8113 265.456 49.6902 264.94 49.6902C264.445 49.6902 264.003 49.8113 263.613 50.0534C263.224 50.285 262.918 50.6113 262.697 51.0324C262.476 51.4535 262.366 51.9325 262.366 52.4694C262.366 53.0063 262.476 53.4853 262.697 53.9064C262.918 54.3275 263.224 54.6591 263.613 54.9012C264.003 55.1328 264.445 55.2486 264.94 55.2486Z" fill="white"/>
<g filter="url(#filter0_b_13134_58322)">
<g clip-path="url(#clip0_13134_58322)">
<rect x="24.4258" y="107.326" width="1151.15" height="12.2137" rx="6.10687" fill="white" fill-opacity="0.1"/>
<rect x="24.4258" y="107.326" width="897.71" height="12.2137" rx="6.10687" fill="#21D789"/>
</g>
</g>
<defs>
<filter id="filter0_b_13134_58322" x="8.63493" y="91.5353" width="1182.73" height="43.7946" filterUnits="userSpaceOnUse" color-interpolation-filters="sRGB">
<feFlood flood-opacity="0" result="BackgroundImageFix"/>
<feGaussianBlur in="BackgroundImageFix" stdDeviation="7.89543"/>
<feComposite in2="SourceAlpha" operator="in" result="effect1_backgroundBlur_13134_58322"/>
<feBlend mode="normal" in="SourceGraphic" in2="effect1_backgroundBlur_13134_58322" result="shape"/>
</filter>
<clipPath id="clip0_13134_58322">
<rect x="24.4258" y="107.326" width="1151.15" height="12.2137" rx="6.10687" fill="white"/>
</clipPath>
</defs>
</svg>
