<svg fill="none" height="154" viewBox="0 0 1277 154" width="1277" xmlns="http://www.w3.org/2000/svg" xmlns:xlink="http://www.w3.org/1999/xlink"><clipPath id="a"><path d="m0 .521484h1276.75v152.690516h-1276.75z"/></clipPath><mask id="b" fill="#fff"><path d="m0 .521484h1276.75v152.690516h-1276.75z" fill="#fff"/></mask><mask id="c" height="11" maskUnits="userSpaceOnUse" width="1115" x="78" y="-9"><path d="m1187.28-8.45117h-1104.3598c-2.6958 0-4.8811 2.18767-4.8811 4.8863 0 2.698629 2.1853 4.8863 4.8811 4.8863h1104.3598c2.7 0 4.88-2.187671 4.88-4.8863 0-2.69863-2.18-4.8863-4.88-4.8863z" fill="#fff"/></mask><g clip-path="url(#a)"><path d="m19.4922 94.1562h1231.2678c0 32.3838-26.22 58.6358-58.57 58.6358h-1114.1241c-32.3494 0-58.5737-26.252-58.5737-58.6358z" fill="#6b57ff"/><path d="m19.4922-389.587c0-32.384 26.2243-58.636 58.5737-58.636h1114.1241c32.35 0 58.57 26.252 58.57 58.636v483.7438h-1231.2678z" fill="#6b57ff"/><path d="m78.043 62.3899c0-17.5406 14.2048-31.761 31.727-31.761h98.844c17.522 0 31.727 14.2204 31.727 31.761s-14.205 31.7609-31.727 31.7609h-98.844c-17.5222 0-31.727-14.2203-31.727-31.7609z" fill="#fff"/><path d="m121.81 53.834v15.2086h8.713v1.8934h-10.714v-17.102zm15.636 4.2999c.968 0 1.802.1796 2.502.5375.708.3506 1.249.8551 1.623 1.5148.382.6596.574 1.4414.574 2.3454v8.4044h-1.929v-4.6786h.733c0 .9932-.196 1.869-.586 2.6264-.383.7488-.928 1.3278-1.635 1.7346-.708.4068-1.53.6108-2.465.6108-.798 0-1.518-.1551-2.16-.4642-.635-.3091-1.131-.7366-1.489-1.2826-.358-.5461-.537-1.1605-.537-1.8446 0-.6597.171-1.2705.513-1.8324.341-.5619.813-1.0224 1.415-1.3803.602-.358 1.281-.5779 2.038-.6597l3.27-.3665c.277-.033.497-.1429.659-.3298.163-.1955.261-.485.293-.8673l.073 2.5653-4.014.4397c-.432.0489-.818.1833-1.16.4032-.333.2113-.593.4886-.781.8307-.187.3334-.28.6999-.28 1.0994 0 .4067.11.7695.329 1.0871.22.3091.525.5498.915.7208.399.171.855.2565 1.367.2565.675 0 1.277-.138 1.806-.4153.529-.2846.94-.6804 1.233-1.1849s.439-1.0872.439-1.7469v-3.9701c0-.4972-.114-.9284-.342-1.2949-.219-.3665-.537-.6474-.951-.8429-.415-.204-.899-.3053-1.453-.3053-.561 0-1.057.0891-1.488.2687-.423.171-.761.4031-1.013.6963-.252.2931-.411.6071-.476.9406h-1.953c.106-.6755.375-1.2863.806-1.8324.439-.5533 1.013-.9894 1.72-1.3071.708-.3176 1.509-.4764 2.404-.4764zm18.704 12.8021h-1.879v-5.4115h.781c0 1.1568-.199 2.1658-.598 3.0295-.399.8551-.968 1.5147-1.709 1.9789-.74.4642-1.61.6963-2.611.6963-.895 0-1.688-.1918-2.38-.5741-.692-.3824-1.236-.9443-1.635-1.6858-.39-.7488-.586-1.6455-.586-2.6875v-7.8547h1.953v7.6593c0 .7244.126 1.3437.378 1.8568.26.513.626.904 1.098 1.1727.473.2688 1.034.4031 1.684.4031.7 0 1.318-.1551 1.855-.4642s.952-.7415 1.245-1.2949c.301-.5619.451-1.2008.451-1.9178v-7.415h1.953zm4.157-12.5089h1.88v5.4116h-.781c0-1.1568.199-2.1622.598-3.0173.397-.8637.967-1.527 1.708-1.9912.74-.4642 1.611-.6963 2.611-.6963.895 0 1.688.1918 2.38.5742.691.3823 1.233.9491 1.623 1.698.398.7415.598 1.6332.598 2.6752v7.8547h-1.953v-7.6592c0-.7244-.13-1.3438-.39-1.8568-.253-.5131-.615-.904-1.086-1.1727-.472-.2688-1.034-.4031-1.684-.4031-.7 0-1.318.1551-1.855.4641-.537.3091-.957.7452-1.257 1.3071-.293.5534-.439 1.1886-.439 1.9057v7.4149h-1.953zm19.631 12.8021c-1.18 0-2.245-.2846-3.197-.8551s-1.7-1.3523-2.245-2.3454c-.537-1.0017-.806-2.117-.806-3.3471s.269-2.3418.806-3.3349c.545-1.0017 1.293-1.7872 2.245-2.3577.952-.5704 2.017-.8551 3.197-.8551.936 0 1.794.1796 2.575.5375.79.3506 1.452.8515 1.989 1.5026.546.6511.936 1.4084 1.172 2.2721h-2.136c-.195-.5216-.467-.9687-.818-1.3437-.35-.3824-.765-.6756-1.244-.8796-.472-.2113-.985-.3176-1.538-.3176-.805 0-1.529.204-2.172.6108-.634.4068-1.131.9736-1.489 1.698-.357.7244-.537 1.5477-.537 2.4676 0 .9125.18 1.731.537 2.4554.358.7244.855 1.2948 1.489 1.7102.643.4067 1.367.6107 2.172.6107.553 0 1.066-.1013 1.538-.3053.479-.2114.894-.5046 1.244-.8796.351-.3823.623-.8343.818-1.356h2.136c-.236.8637-.626 1.6211-1.172 2.2722-.537.6511-1.199 1.1568-1.989 1.5147-.781.3506-1.639.5253-2.575.5253zm8.684-17.3952h1.879v3.9457 2.2232 3.8358h-.781c0-1.1568.199-2.1622.598-3.0173.398-.8637.968-1.527 1.708-1.9912s1.611-.6963 2.612-.6963c.894 0 1.687.1918 2.379.5742.691.3823 1.233.9491 1.623 1.698.398.7415.598 1.6332.598 2.6752v7.8547h-1.952v-7.6592c0-.7244-.131-1.3438-.391-1.8568-.252-.5131-.615-.904-1.086-1.1727-.472-.2688-1.033-.4031-1.684-.4031-.7 0-1.318.1551-1.855.4641-.537.3091-.956.7452-1.256 1.3071-.293.5534-.44 1.1886-.44 1.9057v7.4149h-1.952z" fill="#19191c"/><g fill="#fff"><path d="m270.227 41.3887h10.543v1.5148h-4.452v12.1668h-1.62v-12.1668h-4.471zm12.772 0h1.504v3.1565 1.7786 3.0686h-.625c0-.9247.159-1.7297.478-2.4138.319-.6902.774-1.2216 1.367-1.5929.592-.3714 1.289-.5571 2.089-.5571.715 0 1.35.1527 1.904.4594.553.3066.986.7586 1.298 1.3584.319.5924.478 1.3058.478 2.1401v6.2838h-1.561v-6.1274c0-.5802-.105-1.075-.313-1.4854-.202-.4105-.492-.7232-.869-.9382-.378-.215-.827-.3225-1.347-.3225-.56 0-1.054.1234-1.484.3714-.429.248-.765.5961-1.005 1.0456-.235.4435-.352.9517-.352 1.5246v5.9319h-1.562zm15.743 13.9162c-.943 0-1.796-.2248-2.558-.6743-.761-.4496-1.359-1.075-1.796-1.8764-.435-.8013-.654-1.7041-.654-2.707 0-.9772.222-1.8629.664-2.6581.443-.8014 1.045-1.4268 1.806-1.8764.769-.4556 1.614-.6841 2.538-.6841.951 0 1.794.2212 2.529.6646.735.4361 1.308 1.0518 1.718 1.847s.615 1.7041.615 2.7265v.3519h-8.318l.02-.4007c.007.7757.154 1.4561.439 2.0425.293.5802.697 1.0298 1.211 1.3486.515.3188 1.11.4789 1.786.4789.605 0 1.142-.1173 1.611-.3519.469-.2345.853-.5704 1.152-1.0065h1.738c-.247.5729-.589 1.0688-1.025 1.4854-.43.4104-.94.7293-1.533.9577-.592.2211-1.24.3323-1.943.3323zm-3.456-6.1275h6.756v.8698c0-.7488-.139-1.4109-.42-1.9838-.273-.5803-.66-1.0298-1.162-1.3486-.5-.3189-1.073-.4789-1.718-.4789-.67 0-1.265.1564-1.786.4691-.52.3127-.928.7525-1.221 1.3193-.285.5668-.429 1.2179-.429 1.9545zm19.923 6.1275c-.945 0-1.797-.2285-2.558-.6841-.761-.4557-1.361-1.0811-1.796-1.8763-.43-.8014-.645-1.6944-.645-2.6778 0-.9833.215-1.8726.645-2.6679.435-.8013 1.035-1.4304 1.796-1.8861.761-.4556 1.613-.6841 2.558-.6841.748 0 1.435.143 2.06.43.63.2798 1.161.6804 1.591 1.2021.435.5216.748 1.1275.937 1.8177h-1.708c-.157-.4166-.375-.7757-.654-1.075-.281-.3066-.613-.5412-.996-.7036-.378-.1698-.788-.2541-1.23-.2541-.645 0-1.224.1624-1.738.4886-.508.3262-.905.7781-1.191 1.3584-.287.5802-.429 1.2374-.429 1.974 0 .7293.142 1.3841.429 1.9643.286.5803.683 1.0359 1.191 1.3682.514.3262 1.093.4887 1.738.4887.442 0 .852-.0819 1.23-.2444.383-.1698.715-.4043.996-.7036.279-.3066.497-.6682.654-1.0847h1.708c-.189.6901-.502 1.296-.937 1.8176-.43.5216-.961.9248-1.591 1.2118-.625.2798-1.312.4203-2.06.4203zm11.28 0c-.957 0-1.825-.2285-2.606-.6841-.775-.4557-1.383-1.0811-1.826-1.8763-.443-.8014-.664-1.6944-.664-2.6778 0-.9833.221-1.8726.664-2.6679.443-.8013 1.051-1.4304 1.826-1.8861.781-.4556 1.649-.6841 2.606-.6841s1.822.2285 2.597.6841c.781.4557 1.392 1.0848 1.835 1.8861.443.7953.664 1.6846.664 2.6679 0 .9834-.221 1.8764-.664 2.6778-.443.7952-1.054 1.4206-1.835 1.8763-.775.4556-1.64.6841-2.597.6841zm0-1.4268c.677 0 1.275-.1601 1.796-.4789.528-.3262.934-.7757 1.221-1.3486.293-.5802.439-1.2411.439-1.9839 0-.7488-.146-1.4109-.439-1.9838-.287-.5802-.693-1.0298-1.221-1.3486-.521-.3262-1.119-.4886-1.796-.4886s-1.279.1624-1.806.4886c-.521.3188-.927.7684-1.22 1.3486-.287.5729-.43 1.235-.43 1.9838 0 .7428.143 1.4037.43 1.9839.293.5729.699 1.0224 1.22 1.3486.527.3188 1.129.4789 1.806.4789zm15.832 1.1922h-1.503v-4.3292h.624c0 .9247-.159 1.7334-.478 2.4236-.318.6841-.775 1.2118-1.367 1.5831-.591.3714-1.288.5571-2.089.5571-.716 0-1.351-.1527-1.903-.4593-.553-.3066-.99-.7562-1.309-1.3487-.312-.5997-.468-1.3156-.468-2.1499v-6.2838h1.562v6.1274c0 .5803.101 1.075.302 1.4855.209.4104.502.7231.879.9381s.826.3225 1.347.3225c.56 0 1.055-.1234 1.484-.3713.43-.248.762-.5925.996-1.0359.24-.4496.361-.9614.361-1.5343v-5.932h1.562zm3.355-10.0071h1.562v3.352l-.654.9772c.026-.899.189-1.6808.488-2.3454.306-.6706.729-1.1861 1.269-1.544.54-.358 1.169-.5375 1.884-.5375h.351v1.632h-.41c-.592 0-1.109.1136-1.552.342-.442.2285-.783.5534-1.025.9773-.234.4166-.351.9088-.351 1.4756v5.6779h-1.562zm10.288 10.2417c-.769 0-1.452-.121-2.05-.3616-.599-.248-1.074-.5961-1.425-1.0457-.352-.4495-.547-.9736-.586-1.5734h1.562c.039.3323.168.6218.39.8698.221.248.51.4398.869.5766.358.1368.764.2052 1.22.2052s.859-.0721 1.211-.215c.357-.1429.634-.342.83-.5961.195-.2602.293-.5571.293-.8893 0-.2346-.053-.4496-.157-.645-.097-.1955-.241-.358-.429-.4887-.183-.1307-.404-.2186-.664-.2638l-2.157-.4007c-.535-.0977-1-.2736-1.397-.5277-.39-.2602-.693-.5803-.907-.9577-.209-.3775-.313-.7977-.313-1.2607 0-.5473.149-1.0396.449-1.4757.299-.4434.719-.7915 1.26-1.0456.546-.2541 1.171-.3812 1.874-.3812.722 0 1.357.1173 1.904.3518.546.2285.976.5608 1.288.9969.319.43.501.9418.547 1.5343h-1.562c-.039-.3189-.156-.5962-.351-.8307-.196-.2407-.453-.4263-.772-.5571-.312-.1307-.664-.1954-1.054-.1954-.404 0-.761.0684-1.074.2052-.312.1307-.554.3189-.722.5668-.17.2407-.254.518-.254.8307 0 .2346.049.4398.146.6157.104.1698.26.3127.469.43.215.1172.49.2089.83.2736l2.138.4007c.507.0977.943.2797 1.308.5472.371.2602.65.5901.839.9871.196.3909.293.8209.293 1.29 0 .5802-.169 1.1006-.507 1.5636-.332.463-.791.8246-1.377 1.0847-.586.2541-1.24.3812-1.962.3812zm10.576 0c-.943 0-1.796-.2248-2.558-.6743-.761-.4496-1.36-1.075-1.796-1.8764-.436-.8013-.654-1.7041-.654-2.707 0-.9772.221-1.8629.664-2.6581.443-.8014 1.044-1.4268 1.806-1.8764.767-.4556 1.614-.6841 2.538-.6841.951 0 1.793.2212 2.529.6646.735.4361 1.308 1.0518 1.718 1.847s.615 1.7041.615 2.7265v.3519h-8.318l.02-.4007c.006.7757.152 1.4561.439 2.0425.293.5802.697 1.0298 1.211 1.3486.513.3188 1.109.4789 1.786.4789.605 0 1.142-.1173 1.611-.3519.468-.2345.853-.5704 1.152-1.0065h1.738c-.248.5729-.59 1.0688-1.025 1.4854-.43.4104-.941.7293-1.533.9577-.592.2211-1.24.3323-1.943.3323zm-3.456-6.1275h6.756v.8698c0-.7488-.141-1.4109-.42-1.9838-.273-.5803-.66-1.0298-1.162-1.3486-.501-.3189-1.074-.4789-1.718-.4789-.67 0-1.265.1564-1.786.4691s-.928.7525-1.221 1.3193c-.286.5668-.429 1.2179-.429 1.9545zm16.153-4.1142h1.562v3.352l-.655.9772c.027-.899.189-1.6808.489-2.3454.305-.6706.729-1.1861 1.269-1.544.54-.358 1.168-.5375 1.883-.5375h.353v1.632h-.41c-.593 0-1.111.1136-1.552.342-.443.2285-.785.5534-1.025.9773-.235.4166-.352.9088-.352 1.4756v5.6779h-1.562zm11.149 10.2417c-.945 0-1.797-.2248-2.558-.6743-.761-.4496-1.361-1.075-1.796-1.8764-.437-.8013-.654-1.7041-.654-2.707 0-.9772.221-1.8629.664-2.6581.441-.8014 1.044-1.4268 1.806-1.8764.767-.4556 1.613-.6841 2.538-.6841.949 0 1.792.2212 2.528.6646.735.4361 1.308 1.0518 1.718 1.847s.615 1.7041.615 2.7265v.3519h-8.317l.019-.4007c.006.7757.153 1.4561.44 2.0425.293.5802.695 1.0298 1.21 1.3486.514.3188 1.109.4789 1.787.4789.605 0 1.142-.1173 1.611-.3519.468-.2345.851-.5704 1.151-1.0065h1.738c-.248.5729-.589 1.0688-1.025 1.4854-.429.4104-.941.7293-1.533.9577-.593.2211-1.239.3323-1.942.3323zm-3.456-6.1275h6.755v.8698c0-.7488-.14-1.4109-.419-1.9838-.274-.5803-.662-1.0298-1.162-1.3486-.502-.3189-1.074-.4789-1.718-.4789-.671 0-1.267.1564-1.787.4691-.521.3127-.927.7525-1.22 1.3193-.287.5668-.43 1.2179-.43 1.9545zm20.076 9.0202h-1.562v-11.1799h.039v-1.9545h1.523zm-5.233-2.8927c-.931 0-1.76-.2187-2.489-.6548-.722-.4434-1.289-1.0616-1.699-1.8568-.403-.7952-.605-1.7041-.605-2.7266 0-1.0224.202-1.9313.605-2.7265.41-.7952.977-1.4109 1.699-1.847.729-.4434 1.558-.6646 2.489-.6646.86 0 1.617.1918 2.275.5766.658.3775 1.168.9125 1.533 1.6027.371.6841.562 1.4793.576 2.3845h-.645v1.3487h.645c-.014.9051-.205 1.704-.576 2.3942-.365.6841-.875 1.218-1.533 1.6028-.658.3774-1.415.5668-2.275.5668zm.244-1.417c.67 0 1.266-.1601 1.787-.4789.521-.3262.924-.7757 1.211-1.3486.292-.5803.439-1.2448.439-1.9937 0-.7488-.147-1.4109-.439-1.9838-.287-.5802-.69-1.0298-1.211-1.3486-.521-.3262-1.117-.4886-1.787-.4886-.663 0-1.253.1624-1.766.4886-.514.3188-.914.7684-1.201 1.3486-.287.5729-.43 1.235-.43 1.9838 0 .7489.143 1.4134.43 1.9937.287.5729.687 1.0224 1.201 1.3486.513.3188 1.103.4789 1.766.4789zm16.368 1.1824h-1.503v-4.3292h.625c0 .9247-.16 1.7334-.479 2.4236-.319.6841-.775 1.2118-1.366 1.5831-.594.3714-1.289.5571-2.09.5571-.716 0-1.35-.1527-1.903-.4593-.554-.3066-.99-.7562-1.308-1.3487-.313-.5997-.469-1.3156-.469-2.1499v-6.2838h1.562v6.1274c0 .5803.1 1.075.303 1.4855.207.4104.5.7231.878.9381.377.215.826.3225 1.347.3225.559 0 1.055-.1234 1.484-.3713.43-.248.762-.5925.996-1.0359.24-.4496.361-.9614.361-1.5343v-5.932h1.562zm3.355-10.0071h1.562v10.0071h-1.562zm-.078-3.6745h1.718v1.7786h-1.718zm4.95 3.6745h1.562v3.352l-.654.9772c.026-.899.188-1.6808.488-2.3454.305-.6706.729-1.1861 1.269-1.544.54-.358 1.168-.5375 1.885-.5375h.351v1.632h-.41c-.593 0-1.11.1136-1.552.342-.443.2285-.785.5534-1.025.9773-.234.4166-.352.9088-.352 1.4756v5.6779h-1.562zm11.149 10.2417c-.943 0-1.796-.2248-2.558-.6743-.761-.4496-1.36-1.075-1.796-1.8764-.436-.8013-.654-1.7041-.654-2.707 0-.9772.221-1.8629.664-2.6581.443-.8014 1.044-1.4268 1.806-1.8764.767-.4556 1.614-.6841 2.538-.6841.951 0 1.793.2212 2.528.6646.736.4361 1.308 1.0518 1.718 1.847.411.7952.616 1.7041.616 2.7265v.3519h-8.318l.02-.4007c.006.7757.152 1.4561.439 2.0425.293.5802.697 1.0298 1.21 1.3486.514.3188 1.11.4789 1.787.4789.605 0 1.142-.1173 1.611-.3519.468-.2345.853-.5704 1.152-1.0065h1.737c-.247.5729-.589 1.0688-1.025 1.4854-.429.4104-.941.7293-1.532.9577-.592.2211-1.24.3323-1.943.3323zm-3.456-6.1275h6.756v.8698c0-.7488-.141-1.4109-.42-1.9838-.274-.5803-.66-1.0298-1.162-1.3486-.501-.3189-1.074-.4789-1.718-.4789-.67 0-1.266.1564-1.787.4691s-.927.7525-1.22 1.3193c-.287.5668-.429 1.2179-.429 1.9545zm14.102 6.1275c-.768 0-1.451-.121-2.05-.3616-.598-.248-1.074-.5961-1.426-1.0457-.351-.4495-.546-.9736-.585-1.5734h1.562c.039.3323.169.6218.39.8698.222.248.511.4398.869.5766.359.1368.765.2052 1.22.2052.457 0 .859-.0721 1.211-.215.358-.1429.634-.342.829-.5961.196-.2602.293-.5571.293-.8893 0-.2346-.051-.4496-.156-.645-.097-.1955-.24-.358-.429-.4887-.182-.1307-.403-.2186-.664-.2638l-2.158-.4007c-.533-.0977-.998-.2736-1.396-.5277-.39-.2602-.693-.5803-.908-.9577-.207-.3775-.312-.7977-.312-1.2607 0-.5473.15-1.0396.449-1.4757.3-.4434.72-.7915 1.259-1.0456.547-.2541 1.172-.3812 1.875-.3812.722 0 1.357.1173 1.903.3518.547.2285.977.5608 1.289.9969.32.43.502.9418.547 1.5343h-1.562c-.039-.3189-.156-.5962-.352-.8307-.195-.2407-.451-.4263-.771-.5571-.312-.1307-.664-.1954-1.054-.1954-.403 0-.762.0684-1.074.2052-.312.1307-.553.3189-.722.5668-.169.2407-.254.518-.254.8307 0 .2346.049.4398.146.6157.105.1698.261.3127.469.43.214.1172.491.2089.83.2736l2.137.4007c.508.0977.945.2797 1.309.5472.371.2602.651.5901.839.9871.195.3909.293.8209.293 1.29 0 .5802-.168 1.1006-.508 1.5636-.332.463-.79.8246-1.376 1.0847-.586.2541-1.24.3812-1.962.3812zm15.275-.2346c-.474 0-.908-.1013-1.298-.3029-.385-.2089-.687-.4923-.908-.8502-.221-.3653-.332-.7684-.332-1.2118l-.01-6.2545h-1.757l.01-1.3877h1.083c.248 0 .446-.0782.596-.2346.156-.1563.234-.3554.234-.5961v-1.6124h1.406v2.4431h2.704l-.01 1.3877h-2.704l.01 6.1567c0 .3067.101.5632.303.7721.208.2015.465.3029.771.3029h1.62v1.3877zm4.185-13.6816h1.503v3.1565 1.7786 3.0686h-.625c0-.9247.16-1.7297.479-2.4138.318-.6902.774-1.2216 1.366-1.5929.592-.3714 1.289-.5571 2.089-.5571.717 0 1.351.1527 1.904.4594.553.3066.986.7586 1.298 1.3584.319.5924.479 1.3058.479 2.1401v6.2838h-1.562v-6.1274c0-.5802-.104-1.075-.313-1.4854-.201-.4105-.491-.7232-.868-.9382s-.827-.3225-1.348-.3225c-.56 0-1.054.1234-1.483.3714-.43.248-.766.5961-1.006 1.0456-.234.4435-.351.9517-.351 1.5246v5.9319h-1.562zm15.744 13.9162c-.944 0-1.797-.2248-2.558-.6743-.761-.4496-1.361-1.075-1.796-1.8764-.436-.8013-.654-1.7041-.654-2.707 0-.9772.221-1.8629.664-2.6581.442-.8014 1.044-1.4268 1.806-1.8764.767-.4556 1.614-.6841 2.538-.6841.95 0 1.792.2212 2.528.6646.736.4361 1.308 1.0518 1.718 1.847s.615 1.7041.615 2.7265v.3519h-8.317l.019-.4007c.007.7757.153 1.4561.44 2.0425.293.5802.697 1.0298 1.21 1.3486.514.3188 1.109.4789 1.787.4789.605 0 1.142-.1173 1.611-.3519.468-.2345.853-.5704 1.151-1.0065h1.738c-.248.5729-.589 1.0688-1.025 1.4854-.429.4104-.941.7293-1.533.9577-.591.2211-1.239.3323-1.942.3323zm-3.456-6.1275h6.755v.8698c0-.7488-.14-1.4109-.419-1.9838-.274-.5803-.661-1.0298-1.162-1.3486-.502-.3189-1.074-.4789-1.718-.4789-.67 0-1.266.1564-1.787.4691s-.927.7525-1.22 1.3193c-.287.5668-.43 1.2179-.43 1.9545zm16.319-7.7887h1.562v13.6816h-1.562zm8.554 3.4399c.775 0 1.441.143 2.001.43.566.2798 1 .6841 1.299 1.2118.306.5277.458 1.1532.458 1.8764v6.7235h-1.542v-3.7429h.586c0 .7953-.156 1.4952-.469 2.1011-.306.5998-.742 1.0616-1.308 1.3877-.566.3262-1.224.4887-1.972.4887-.638 0-1.214-.1234-1.728-.3714-.508-.248-.904-.59-1.191-1.0261s-.429-.9284-.429-1.4757c0-.5277.136-1.0163.41-1.4658.273-.4496.65-.8173 1.132-1.1044.482-.287 1.025-.463 1.63-.5277l2.617-.2932c.22-.0256.396-.1136.527-.2638.13-.1564.208-.3873.234-.6939l.059 2.0523-3.212.3518c-.345.0391-.654.1466-.928.3225-.267.1698-.474.3909-.624.6645-.15.2675-.225.5607-.225.8795 0 .3262.088.6157.264.8698.175.248.419.4398.732.5766.318.1368.683.2052 1.093.2052.541 0 1.022-.1112 1.445-.3323.424-.2284.752-.5436.986-.9479.234-.4044.351-.8698.351-1.3975v-3.1761c0-.397-.091-.7427-.273-1.0359-.176-.2931-.429-.5179-.761-.6743-.332-.1624-.719-.2443-1.162-.2443-.449 0-.846.0721-1.191.215-.338.1368-.609.3225-.81.5571-.202.2345-.329.4849-.381.7524h-1.562c.084-.5411.299-1.0298.644-1.4659.352-.4434.811-.7915 1.377-1.0456s1.207-.3812 1.923-.3812zm10.102 10.2417c-.476 0-.908-.1013-1.299-.3029-.384-.2089-.687-.4923-.908-.8502-.222-.3653-.332-.7684-.332-1.2118l-.009-6.2545h-1.758l.01-1.3877h1.084c.246 0 .445-.0782.595-.2346.156-.1563.234-.3554.234-.5961v-1.6124h1.406v2.4431h2.704l-.009 1.3877h-2.704l.009 6.1567c0 .3067.1.5632.303.7721.207.2015.465.3029.771.3029h1.621v1.3877zm8.306.2346c-.945 0-1.796-.2248-2.558-.6743-.761-.4496-1.36-1.075-1.796-1.8764-.437-.8013-.654-1.7041-.654-2.707 0-.9772.221-1.8629.664-2.6581.442-.8014 1.044-1.4268 1.806-1.8764.767-.4556 1.613-.6841 2.538-.6841.949 0 1.793.2212 2.528.6646.735.4361 1.309 1.0518 1.719 1.847s.615 1.7041.615 2.7265v.3519h-8.318l.02-.4007c.006.7757.152 1.4561.439 2.0425.293.5802.696 1.0298 1.211 1.3486.513.3188 1.109.4789 1.786.4789.605 0 1.142-.1173 1.611-.3519.468-.2345.852-.5704 1.152-1.0065h1.737c-.247.5729-.589 1.0688-1.025 1.4854-.429.4104-.94.7293-1.532.9577-.593.2211-1.24.3323-1.943.3323zm-3.456-6.1275h6.756v.8698c0-.7488-.141-1.4109-.42-1.9838-.273-.5803-.662-1.0298-1.162-1.3486-.501-.3189-1.074-.4789-1.718-.4789-.671 0-1.267.1564-1.786.4691-.522.3127-.928.7525-1.221 1.3193-.287.5668-.429 1.2179-.429 1.9545zm14.102 6.1275c-.768 0-1.451-.121-2.05-.3616-.599-.248-1.074-.5961-1.426-1.0457-.351-.4495-.546-.9736-.585-1.5734h1.562c.039.3323.169.6218.39.8698s.511.4398.869.5766.765.2052 1.22.2052.859-.0721 1.211-.215c.357-.1429.634-.342.83-.5961.195-.2602.292-.5571.292-.8893 0-.2346-.052-.4496-.156-.645-.097-.1955-.24-.358-.429-.4887-.182-.1307-.404-.2186-.664-.2638l-2.158-.4007c-.533-.0977-.999-.2736-1.396-.5277-.39-.2602-.693-.5803-.908-.9577-.208-.3775-.312-.7977-.312-1.2607 0-.5473.15-1.0396.449-1.4757.299-.4434.719-.7915 1.26-1.0456.546-.2541 1.171-.3812 1.874-.3812.722 0 1.357.1173 1.904.3518.546.2285.976.5608 1.288.9969.319.43.502.9418.547 1.5343h-1.562c-.039-.3189-.156-.5962-.352-.8307-.195-.2407-.452-.4263-.771-.5571-.312-.1307-.664-.1954-1.054-.1954-.404 0-.762.0684-1.074.2052-.312.1307-.553.3189-.722.5668-.17.2407-.254.518-.254.8307 0 .2346.049.4398.146.6157.104.1698.26.3127.469.43.215.1172.492.2089.83.2736l2.138.4007c.507.0977.943.2797 1.308.5472.371.2602.65.5901.839.9871.196.3909.293.8209.293 1.29 0 .5802-.169 1.1006-.507 1.5636-.332.463-.791.8246-1.377 1.0847-.586.2541-1.24.3812-1.962.3812zm9.507-.2346c-.476 0-.908-.1013-1.298-.3029-.385-.2089-.687-.4923-.908-.8502-.222-.3653-.332-.7684-.332-1.2118l-.01-6.2545h-1.757l.01-1.3877h1.083c.247 0 .446-.0782.596-.2346.156-.1563.234-.3554.234-.5961v-1.6124h1.406v2.4431h2.704l-.01 1.3877h-2.704l.01 6.1567c0 .3067.1.5632.302.7721.208.2015.465.3029.772.3029h1.62v1.3877zm9.838-10.0071h1.562v10.0071h-1.562zm-.078-3.6745h1.718v1.7786h-1.718zm4.951 3.6745h1.503v4.3292h-.625c0-.9247.16-1.7297.479-2.4138.318-.6902.774-1.2216 1.366-1.5929.592-.3714 1.289-.5571 2.089-.5571.717 0 1.351.1527 1.904.4594.553.3066.986.7586 1.298 1.3584.319.5924.479 1.3058.479 2.1401v6.2838h-1.562v-6.1274c0-.5802-.104-1.075-.313-1.4854-.201-.4105-.491-.7232-.868-.9382s-.827-.3225-1.348-.3225c-.56 0-1.054.1234-1.483.3714-.43.248-.766.5961-1.006 1.0456-.234.4435-.351.9517-.351 1.5246v5.9319h-1.562zm14.787 10.2417c-.769 0-1.452-.121-2.05-.3616-.599-.248-1.074-.5961-1.425-1.0457-.352-.4495-.547-.9736-.586-1.5734h1.562c.039.3323.168.6218.39.8698.221.248.51.4398.869.5766.358.1368.764.2052 1.22.2052s.86-.0721 1.211-.215c.358-.1429.635-.342.83-.5961.195-.2602.293-.5571.293-.8893 0-.2346-.053-.4496-.156-.645-.098-.1955-.242-.358-.43-.4887-.183-.1307-.404-.2186-.664-.2638l-2.157-.4007c-.535-.0977-1-.2736-1.396-.5277-.391-.2602-.693-.5803-.908-.9577-.209-.3775-.313-.7977-.313-1.2607 0-.5473.149-1.0396.449-1.4757.299-.4434.719-.7915 1.26-1.0456.546-.2541 1.171-.3812 1.874-.3812.723 0 1.357.1173 1.904.3518.546.2285.976.5608 1.288.9969.319.43.501.9418.547 1.5343h-1.562c-.039-.3189-.156-.5962-.351-.8307-.196-.2407-.453-.4263-.772-.5571-.312-.1307-.663-.1954-1.054-.1954-.404 0-.761.0684-1.074.2052-.312.1307-.554.3189-.722.5668-.17.2407-.254.518-.254.8307 0 .2346.049.4398.146.6157.104.1698.26.3127.469.43.215.1172.491.2089.83.2736l2.138.4007c.507.0977.943.2797 1.308.5472.371.2602.65.5901.839.9871.196.3909.293.8209.293 1.29 0 .5802-.169 1.1006-.507 1.5636-.332.463-.791.8246-1.377 1.0847-.585.2541-1.24.3812-1.962.3812zm9.506-.2346c-.475 0-.908-.1013-1.298-.3029-.384-.2089-.686-.4923-.908-.8502-.221-.3653-.332-.7684-.332-1.2118l-.01-6.2545h-1.757l.01-1.3877h1.083c.248 0 .447-.0782.596-.2346.156-.1563.234-.3554.234-.5961v-1.6124h1.406v2.4431h2.704l-.01 1.3877h-2.704l.01 6.1567c0 .3067.101.5632.302.7721.209.2015.467.3029.772.3029h1.62v1.3877zm7.613-10.2417c.775 0 1.443.143 2.002.43.566.2798.999.6841 1.298 1.2118.306.5277.459 1.1532.459 1.8764v6.7235h-1.543v-3.7429h.586c0 .7953-.156 1.4952-.468 2.1011-.305.5998-.742 1.0616-1.309 1.3877-.566.3262-1.222.4887-1.972.4887-.637 0-1.212-.1234-1.727-.3714-.508-.248-.905-.59-1.191-1.0261s-.43-.9284-.43-1.4757c0-.5277.137-1.0163.41-1.4658.273-.4496.652-.8173 1.132-1.1044.482-.287 1.025-.463 1.631-.5277l2.616-.2932c.222-.0256.398-.1136.527-.2638.131-.1564.209-.3873.235-.6939l.058 2.0523-3.212.3518c-.344.0391-.654.1466-.927.3225-.266.1698-.475.3909-.625.6645-.149.2675-.224.5607-.224.8795 0 .3262.087.6157.263.8698.176.248.42.4398.732.5766.32.1368.684.2052 1.094.2052.54 0 1.022-.1112 1.445-.3323.423-.2284.751-.5436.986-.9479.234-.4044.351-.8698.351-1.3975v-3.1761c0-.397-.09-.7427-.273-1.0359-.176-.2931-.43-.5179-.762-.6743-.332-.1624-.719-.2443-1.162-.2443-.449 0-.845.0721-1.191.215-.338.1368-.607.3225-.81.5571-.201.2345-.328.4849-.381.7524h-1.562c.086-.5411.301-1.0298.645-1.4659.351-.4434.81-.7915 1.376-1.0456s1.208-.3812 1.923-.3812zm6.949-3.4399h1.562v13.6816h-1.562zm5.197 0h1.562v13.6816h-1.562zm9.247 13.9162c-.943 0-1.796-.2248-2.557-.6743-.762-.4496-1.361-1.075-1.797-1.8764-.435-.8013-.654-1.7041-.654-2.707 0-.9772.221-1.8629.664-2.6581.443-.8014 1.045-1.4268 1.806-1.8764.768-.4556 1.614-.6841 2.538-.6841.951 0 1.793.2212 2.529.6646.736.4361 1.308 1.0518 1.718 1.847s.615 1.7041.615 2.7265v.3519h-8.318l.02-.4007c.006.7757.152 1.4561.439 2.0425.293.5802.697 1.0298 1.211 1.3486s1.109.4789 1.786.4789c.606 0 1.142-.1173 1.611-.3519.469-.2345.853-.5704 1.152-1.0065h1.738c-.248.5729-.59 1.0688-1.025 1.4854-.43.4104-.941.7293-1.533.9577-.592.2211-1.24.3323-1.943.3323zm-3.456-6.1275h6.756v.8698c0-.7488-.14-1.4109-.42-1.9838-.273-.5803-.66-1.0298-1.162-1.3486-.501-.3189-1.073-.4789-1.718-.4789-.67 0-1.265.1564-1.786.4691s-.928.7525-1.221 1.3193c-.286.5668-.429 1.2179-.429 1.9545zm18.524-7.7887h1.562v13.6816h-1.562zm-3.68 13.9162c-.93 0-1.76-.2187-2.489-.6548-.723-.4434-1.289-1.0616-1.699-1.8568-.403-.7952-.605-1.7041-.605-2.7266 0-1.0224.202-1.9313.605-2.7265.41-.7952.976-1.4109 1.699-1.847.729-.4434 1.559-.6646 2.489-.6646.859 0 1.618.1918 2.275.5766.657.3775 1.169.9125 1.532 1.6027.371.6841.564 1.4793.576 2.3845h-.644v1.3487h.644c-.012.9051-.205 1.704-.576 2.3942-.363.6841-.875 1.218-1.532 1.6028-.657.3774-1.416.5668-2.275.5668zm.244-1.417c.671 0 1.267-.1601 1.787-.4789.521-.3262.925-.7757 1.21-1.3486.293-.5803.439-1.2448.439-1.9937 0-.7488-.146-1.4109-.439-1.9838-.285-.5802-.689-1.0298-1.21-1.3486-.52-.3262-1.116-.4886-1.787-.4886-.664 0-1.252.1624-1.767.4886-.514.3188-.914.7684-1.201 1.3486-.285.5729-.429 1.235-.429 1.9838 0 .7489.144 1.4134.429 1.9937.287.5729.687 1.0224 1.201 1.3486.515.3188 1.103.4789 1.767.4789zm12.599-8.8247h1.689l3.056 7.906 2.938-7.906h1.67l-3.934 10.0071h-1.465zm15.488 10.2417c-.943 0-1.796-.2248-2.557-.6743-.762-.4496-1.361-1.075-1.797-1.8764-.435-.8013-.654-1.7041-.654-2.707 0-.9772.221-1.8629.664-2.6581.443-.8014 1.045-1.4268 1.806-1.8764.768-.4556 1.615-.6841 2.538-.6841.951 0 1.793.2212 2.529.6646.736.4361 1.308 1.0518 1.718 1.847s.615 1.7041.615 2.7265v.3519h-8.317l.019-.4007c.006.7757.153 1.4561.439 2.0425.293.5802.697 1.0298 1.211 1.3486s1.109.4789 1.786.4789c.606 0 1.143-.1173 1.611-.3519.469-.2345.853-.5704 1.152-1.0065h1.738c-.248.5729-.59 1.0688-1.025 1.4854-.43.4104-.941.7293-1.533.9577-.592.2211-1.24.3323-1.943.3323zm-3.455-6.1275h6.755v.8698c0-.7488-.14-1.4109-.42-1.9838-.273-.5803-.66-1.0298-1.161-1.3486-.502-.3189-1.074-.4789-1.719-.4789-.67 0-1.265.1564-1.786.4691s-.928.7525-1.22 1.3193c-.287.5668-.43 1.2179-.43 1.9545zm10.842-4.1142h1.562v3.352l-.654.9772c.025-.899.188-1.6808.488-2.3454.305-.6706.728-1.1861 1.269-1.544.539-.358 1.168-.5375 1.884-.5375h.351v1.632h-.41c-.593 0-1.11.1136-1.552.342-.443.2285-.784.5534-1.025.9773-.234.4166-.351.9088-.351 1.4756v5.6779h-1.562zm10.287 10.2417c-.768 0-1.451-.121-2.05-.3616-.599-.248-1.074-.5961-1.426-1.0457-.351-.4495-.546-.9736-.585-1.5734h1.562c.039.3323.169.6218.39.8698s.511.4398.869.5766.765.2052 1.22.2052.859-.0721 1.211-.215c.357-.1429.634-.342.83-.5961.195-.2602.292-.5571.292-.8893 0-.2346-.052-.4496-.156-.645-.097-.1955-.24-.358-.429-.4887-.182-.1307-.404-.2186-.664-.2638l-2.158-.4007c-.533-.0977-.999-.2736-1.396-.5277-.39-.2602-.693-.5803-.907-.9577-.209-.3775-.313-.7977-.313-1.2607 0-.5473.15-1.0396.449-1.4757.299-.4434.719-.7915 1.26-1.0456.546-.2541 1.171-.3812 1.874-.3812.722 0 1.357.1173 1.904.3518.546.2285.976.5608 1.288.9969.319.43.502.9418.547 1.5343h-1.562c-.039-.3189-.156-.5962-.352-.8307-.195-.2407-.452-.4263-.771-.5571-.312-.1307-.664-.1954-1.054-.1954-.404 0-.762.0684-1.074.2052-.312.1307-.553.3189-.722.5668-.17.2407-.254.518-.254.8307 0 .2346.049.4398.146.6157.104.1698.26.3127.469.43.215.1172.492.2089.83.2736l2.138.4007c.507.0977.943.2797 1.308.5472.371.2602.65.5901.839.9871.196.3909.293.8209.293 1.29 0 .5802-.17 1.1006-.508 1.5636-.331.463-.79.8246-1.376 1.0847-.586.2541-1.24.3812-1.962.3812zm6.359-10.2417h1.562v10.0071h-1.562zm-.078-3.6745h1.718v1.7786h-1.718zm9.255 13.9162c-.956 0-1.825-.2285-2.606-.6841-.775-.4557-1.383-1.0811-1.826-1.8763-.443-.8014-.663-1.6944-.663-2.6778 0-.9833.22-1.8726.663-2.6679.443-.8013 1.051-1.4304 1.826-1.8861.781-.4556 1.65-.6841 2.606-.6841.957 0 1.822.2285 2.597.6841.781.4557 1.393 1.0848 1.836 1.8861.442.7953.663 1.6846.663 2.6679 0 .9834-.221 1.8764-.663 2.6778-.443.7952-1.055 1.4206-1.836 1.8763-.775.4556-1.64.6841-2.597.6841zm0-1.4268c.678 0 1.276-.1601 1.797-.4789.527-.3262.933-.7757 1.22-1.3486.293-.5802.439-1.2411.439-1.9839 0-.7488-.146-1.4109-.439-1.9838-.287-.5802-.693-1.0298-1.22-1.3486-.521-.3262-1.119-.4886-1.797-.4886-.677 0-1.278.1624-1.806.4886-.521.3188-.927.7684-1.22 1.3486-.287.5729-.429 1.235-.429 1.9838 0 .7428.142 1.4037.429 1.9839.293.5729.699 1.0224 1.22 1.3486.528.3188 1.129.4789 1.806.4789zm7.622-8.8149h1.504v4.3292h-.625c0-.9247.16-1.7297.478-2.4138.319-.6902.775-1.2216 1.367-1.5929.592-.3714 1.289-.5571 2.089-.5571.717 0 1.351.1527 1.904.4594.553.3066.986.7586 1.298 1.3584.319.5924.479 1.3058.479 2.1401v6.2838h-1.562v-6.1274c0-.5802-.104-1.075-.313-1.4854-.201-.4105-.492-.7232-.869-.9382s-.826-.3225-1.347-.3225c-.56 0-1.054.1234-1.484.3714-.429.248-.765.5961-1.005 1.0456-.235.4435-.352.9517-.352 1.5246v5.9319h-1.562zm21.143 10.2417c-.957 0-1.825-.2285-2.606-.6841-.775-.4557-1.383-1.0811-1.826-1.8763-.443-.8014-.664-1.6944-.664-2.6778 0-.9833.221-1.8726.664-2.6679.443-.8013 1.051-1.4304 1.826-1.8861.781-.4556 1.649-.6841 2.606-.6841s1.822.2285 2.597.6841c.781.4557 1.392 1.0848 1.835 1.8861.443.7953.664 1.6846.664 2.6679 0 .9834-.221 1.8764-.664 2.6778-.443.7952-1.054 1.4206-1.835 1.8763-.775.4556-1.64.6841-2.597.6841zm0-1.4268c.677 0 1.275-.1601 1.796-.4789.528-.3262.934-.7757 1.221-1.3486.293-.5802.439-1.2411.439-1.9839 0-.7488-.146-1.4109-.439-1.9838-.287-.5802-.693-1.0298-1.221-1.3486-.521-.3262-1.119-.4886-1.796-.4886s-1.279.1624-1.806.4886c-.521.3188-.927.7684-1.22 1.3486-.287.5729-.43 1.235-.43 1.9838 0 .7428.143 1.4037.43 1.9839.293.5729.699 1.0224 1.22 1.3486.527.3188 1.129.4789 1.806.4789zm8.453-7.4272h-1.757v-1.3877h1.757v-1.3096c0-.4629.107-.8734.322-1.2313s.514-.6352.898-.8307c.385-.2015.824-.3029 1.318-.3029h1.826v1.3877h-1.728c-.319 0-.58.1014-.781.3029-.195.1955-.293.4533-.293.7721v1.2118h2.704v1.3877h-2.704v8.6194h-1.562zm10.471-5.0622h10.544v1.5148h-4.452v12.1668h-1.621v-12.1668h-4.471zm15.133 13.9162c-.957 0-1.826-.2285-2.607-.6841-.774-.4557-1.383-1.0811-1.825-1.8763-.443-.8014-.664-1.6944-.664-2.6778 0-.9833.221-1.8726.664-2.6679.442-.8013 1.051-1.4304 1.825-1.8861.781-.4556 1.65-.6841 2.607-.6841s1.822.2285 2.597.6841c.781.4557 1.392 1.0848 1.835 1.8861.442.7953.664 1.6846.664 2.6679 0 .9834-.222 1.8764-.664 2.6778-.443.7952-1.054 1.4206-1.835 1.8763-.775.4556-1.64.6841-2.597.6841zm0-1.4268c.676 0 1.275-.1601 1.796-.4789.527-.3262.934-.7757 1.221-1.3486.292-.5802.439-1.2411.439-1.9839 0-.7488-.147-1.4109-.439-1.9838-.287-.5802-.694-1.0298-1.221-1.3486-.521-.3262-1.12-.4886-1.796-.4886-.677 0-1.279.1624-1.806.4886-.521.3188-.927.7684-1.22 1.3486-.287.5729-.43 1.235-.43 1.9838 0 .7428.143 1.4037.43 1.9839.293.5729.699 1.0224 1.22 1.3486.527.3188 1.129.4789 1.806.4789zm11.926 1.4268c-.957 0-1.826-.2285-2.607-.6841-.773-.4557-1.382-1.0811-1.825-1.8763-.442-.8014-.664-1.6944-.664-2.6778 0-.9833.222-1.8726.664-2.6679.443-.8013 1.052-1.4304 1.825-1.8861.781-.4556 1.65-.6841 2.607-.6841s1.823.2285 2.597.6841c.781.4557 1.393 1.0848 1.835 1.8861.443.7953.664 1.6846.664 2.6679 0 .9834-.221 1.8764-.664 2.6778-.442.7952-1.054 1.4206-1.835 1.8763-.774.4556-1.64.6841-2.597.6841zm0-1.4268c.677 0 1.276-.1601 1.796-.4789.527-.3262.935-.7757 1.22-1.3486.293-.5802.44-1.2411.44-1.9839 0-.7488-.147-1.4109-.44-1.9838-.285-.5802-.693-1.0298-1.22-1.3486-.52-.3262-1.119-.4886-1.796-.4886-.676 0-1.279.1624-1.806.4886-.52.3188-.928.7684-1.22 1.3486-.286.5729-.43 1.235-.43 1.9838 0 .7428.144 1.4037.43 1.9839.292.5729.7 1.0224 1.22 1.3486.527.3188 1.13.4789 1.806.4789zm7.789-12.4894h1.562v13.6816h-1.562zm5.03 0h1.562v13.6816h-1.562zm5.233 13.9162c-.859 0-1.617-.1894-2.275-.5668-.658-.3848-1.171-.9187-1.542-1.6028-.365-.6902-.553-1.4891-.567-2.3942h.645v-1.3487h-.645c.014-.9052.202-1.7004.567-2.3845.371-.6902.884-1.2252 1.542-1.6027.658-.3848 1.416-.5766 2.275-.5766.931 0 1.757.2212 2.479.6646.729.4361 1.295 1.0518 1.699 1.847.41.7952.615 1.7041.615 2.7265 0 1.0225-.205 1.9314-.615 2.7266-.404.7952-.97 1.4134-1.699 1.8568-.722.4361-1.548.6548-2.479.6548zm-.244-1.417c.663 0 1.253-.1601 1.767-.4789.513-.3262.914-.7757 1.2-1.3486.287-.5803.43-1.2448.43-1.9937 0-.7488-.143-1.4109-.43-1.9838-.286-.5802-.687-1.0298-1.2-1.3486-.514-.3262-1.104-.4886-1.767-.4886-.67 0-1.266.1624-1.787.4886-.521.3188-.927.7684-1.22 1.3486-.287.5729-.43 1.235-.43 1.9838 0 .7489.143 1.4134.43 1.9937.293.5729.699 1.0224 1.22 1.3486.521.3188 1.117.4789 1.787.4789zm11.853 1.417c-.956 0-1.825-.2285-2.606-.6841-.775-.4557-1.383-1.0811-1.826-1.8763-.443-.8014-.663-1.6944-.663-2.6778 0-.9833.22-1.8726.663-2.6679.443-.8013 1.051-1.4304 1.826-1.8861.781-.4556 1.65-.6841 2.606-.6841.957 0 1.822.2285 2.597.6841.781.4557 1.393 1.0848 1.836 1.8861.442.7953.663 1.6846.663 2.6679 0 .9834-.221 1.8764-.663 2.6778-.443.7952-1.055 1.4206-1.836 1.8763-.775.4556-1.64.6841-2.597.6841zm0-1.4268c.678 0 1.276-.1601 1.797-.4789.527-.3262.933-.7757 1.22-1.3486.293-.5802.439-1.2411.439-1.9839 0-.7488-.146-1.4109-.439-1.9838-.287-.5802-.693-1.0298-1.22-1.3486-.521-.3262-1.119-.4886-1.797-.4886-.677 0-1.278.1624-1.806.4886-.521.3188-.927.7684-1.22 1.3486-.287.5729-.429 1.235-.429 1.9838 0 .7428.142 1.4037.429 1.9839.293.5729.699 1.0224 1.22 1.3486.528.3188 1.129.4789 1.806.4789zm10.368-3.2739-.205-.3909-3.661-5.1501h1.816l2.851 4.1045.175.3225 3.944 5.5801h-1.816zm-.098-1.1531.283-.3323 2.773-4.0556h1.777l-3.651 5.2088-.43.5277-2.919 4.2706h-1.777zm-524.382 24.6953c.774 0 1.441.143 2.001.43.566.2798.999.6841 1.298 1.2118.307.5278.459 1.1532.459 1.8764v6.7235h-1.542v-3.7429h.585c0 .7953-.156 1.4952-.468 2.1011-.307.5998-.742 1.0616-1.308 1.3877-.567.3262-1.224.4887-1.972.4887-.639 0-1.215-.1234-1.728-.3714-.508-.248-.905-.59-1.191-1.0261-.287-.4361-.43-.9284-.43-1.4757 0-.5277.137-1.0163.41-1.4658.274-.4496.651-.8173 1.133-1.1044.482-.287 1.025-.463 1.63-.5277l2.616-.2932c.221-.0256.397-.1136.527-.2638.131-.1564.209-.3873.235-.6939l.058 2.0523-3.212.3518c-.345.0391-.654.1466-.927.3225-.267.1698-.475.3909-.625.6645-.15.2675-.224.5607-.224.8796 0 .3261.088.6156.263.8697.176.248.42.4398.732.5766.319.1368.684.2052 1.094.2052.54 0 1.021-.1112 1.445-.3323.423-.2284.751-.5436.986-.9479.234-.4043.351-.8697.351-1.3975v-3.1761c0-.397-.091-.7427-.273-1.0359-.176-.2931-.43-.5179-.762-.6743-.332-.1624-.718-.2443-1.161-.2443-.449 0-.846.0721-1.191.215-.338.1368-.609.3225-.811.5571-.201.2345-.328.4849-.38.7524h-1.562c.084-.5411.299-1.0298.644-1.4659.351-.4434.81-.7915 1.376-1.0456.567-.2541 1.207-.3812 1.924-.3812zm8.305.2346v1.9545h.039v11.1799h-1.562v-13.1344zm3.719 10.2417c-.859 0-1.617-.1894-2.274-.5668-.658-.3848-1.172-.9187-1.543-1.6028-.365-.6901-.553-1.489-.566-2.3942h.644v-1.3487h-.644c.013-.9051.201-1.7004.566-2.3845.371-.6902.885-1.2252 1.543-1.6027.657-.3847 1.415-.5766 2.274-.5766.931 0 1.758.2212 2.48.6646.728.4361 1.295 1.0518 1.699 1.847.41.7952.615 1.7041.615 2.7266 0 1.0224-.205 1.9313-.615 2.7265-.404.7952-.971 1.4134-1.699 1.8568-.722.4361-1.549.6548-2.48.6548zm-.244-1.417c.664 0 1.253-.1601 1.767-.4789.514-.3261.914-.7757 1.201-1.3486.287-.5803.43-1.2448.43-1.9936 0-.7489-.143-1.411-.43-1.9839-.287-.5802-.687-1.0298-1.201-1.3486-.514-.3262-1.103-.4886-1.767-.4886-.67 0-1.265.1624-1.786.4886-.521.3188-.928.7684-1.221 1.3486-.286.5729-.429 1.235-.429 1.9839 0 .7488.143 1.4133.429 1.9936.293.5729.7 1.0225 1.221 1.3486.521.3188 1.116.4789 1.786.4789zm9.082-8.8247v1.9545h.039v11.1799h-1.562v-13.1344zm3.719 10.2417c-.859 0-1.618-.1894-2.275-.5668-.657-.3848-1.171-.9187-1.542-1.6028-.365-.6901-.554-1.489-.566-2.3942h.644v-1.3487h-.644c.012-.9051.201-1.7004.566-2.3845.371-.6902.885-1.2252 1.542-1.6027.657-.3847 1.416-.5766 2.275-.5766.93 0 1.757.2212 2.48.6646.728.4361 1.294 1.0518 1.698 1.847.41.7952.615 1.7041.615 2.7266 0 1.0224-.205 1.9313-.615 2.7265-.404.7952-.97 1.4134-1.698 1.8568-.723.4361-1.55.6548-2.48.6548zm-.244-1.417c.664 0 1.252-.1601 1.767-.4789.514-.3261.914-.7757 1.201-1.3486.285-.5803.429-1.2448.429-1.9936 0-.7489-.144-1.411-.429-1.9839-.287-.5802-.687-1.0298-1.201-1.3486-.515-.3262-1.103-.4886-1.767-.4886-.671 0-1.267.1624-1.787.4886-.521.3188-.927.7684-1.22 1.3486-.287.5729-.429 1.235-.429 1.9839 0 .7488.142 1.4133.429 1.9936.293.5729.699 1.0225 1.22 1.3486.52.3188 1.116.4789 1.787.4789zm7.723-12.4992h1.562v13.6816h-1.562zm5.031 3.6745h1.562v10.0071h-1.562zm-.078-3.6745h1.718v1.7786h-1.718zm9.157 13.9162c-.943 0-1.796-.2285-2.557-.6841-.762-.4557-1.36-1.0811-1.797-1.8763-.429-.8014-.644-1.6944-.644-2.6777 0-.9834.215-1.8727.644-2.668.437-.8013 1.035-1.4304 1.797-1.8861.761-.4556 1.614-.6841 2.557-.6841.75 0 1.435.143 2.06.43.632.2798 1.162.6805 1.591 1.2021.437.5216.75 1.1275.938 1.8177h-1.709c-.156-.4166-.373-.7757-.654-1.075-.279-.3066-.611-.5412-.996-.7036-.377-.1698-.787-.2541-1.23-.2541-.644 0-1.222.1624-1.737.4886-.508.3262-.905.7781-1.191 1.3584-.286.5802-.43 1.2374-.43 1.9741 0 .7292.144 1.384.43 1.9642.286.5803.683 1.0359 1.191 1.3682.515.3262 1.093.4887 1.737.4887.443 0 .853-.0819 1.23-.2444.385-.1698.717-.4043.996-.7036.281-.3066.498-.6682.654-1.0847h1.709c-.188.6902-.501 1.296-.938 1.8176-.429.5217-.959.9248-1.591 1.2118-.625.2798-1.31.4203-2.06.4203zm10.501-10.4763c.775 0 1.441.143 2.001.43.566.2798 1 .6841 1.299 1.2118.306.5278.458 1.1532.458 1.8764v6.7235h-1.542v-3.7429h.586c0 .7953-.157 1.4952-.469 2.1011-.306.5998-.742 1.0616-1.308 1.3877-.566.3262-1.224.4887-1.972.4887-.638 0-1.214-.1234-1.728-.3714-.508-.248-.904-.59-1.191-1.0261s-.429-.9284-.429-1.4757c0-.5277.136-1.0163.41-1.4658.273-.4496.65-.8173 1.132-1.1044.482-.287 1.025-.463 1.63-.5277l2.617-.2932c.22-.0256.396-.1136.527-.2638.13-.1564.208-.3873.234-.6939l.059 2.0523-3.212.3518c-.346.0391-.654.1466-.928.3225-.267.1698-.474.3909-.624.6645-.151.2675-.225.5607-.225.8796 0 .3261.088.6156.264.8697.175.248.419.4398.732.5766.318.1368.683.2052 1.093.2052.541 0 1.022-.1112 1.445-.3323.423-.2284.752-.5436.986-.9479s.351-.8697.351-1.3975v-3.1761c0-.397-.091-.7427-.273-1.0359-.176-.2931-.429-.5179-.761-.6743-.332-.1624-.719-.2443-1.162-.2443-.449 0-.846.0721-1.191.215-.338.1368-.609.3225-.81.5571-.202.2345-.329.4849-.381.7524h-1.562c.084-.5411.299-1.0298.644-1.4659.352-.4434.811-.7915 1.377-1.0456s1.207-.3812 1.923-.3812zm10.101 10.2417c-.475 0-.907-.1013-1.298-.3029-.384-.2089-.687-.4923-.908-.8502-.222-.3653-.332-.7684-.332-1.2118l-.009-6.2545h-1.758l.01-1.3877h1.084c.246 0 .445-.0782.595-.2346.156-.1563.234-.3554.234-.5961v-1.6124h1.406v2.4431h2.704l-.009 1.3877h-2.705l.01 6.1568c0 .3066.1.5631.303.772.207.2015.465.3029.771.3029h1.621v1.3877zm4.185-10.0071h1.562v10.0071h-1.562zm-.078-3.6745h1.718v1.7786h-1.718zm9.256 13.9162c-.957 0-1.826-.2285-2.607-.6841-.775-.4557-1.384-1.0811-1.825-1.8763-.443-.8014-.664-1.6944-.664-2.6777 0-.9834.221-1.8727.664-2.668.441-.8013 1.05-1.4304 1.825-1.8861.781-.4556 1.65-.6841 2.607-.6841.956 0 1.821.2285 2.596.6841.781.4557 1.393 1.0848 1.836 1.8861.441.7953.664 1.6846.664 2.668 0 .9833-.223 1.8763-.664 2.6777-.443.7952-1.055 1.4206-1.836 1.8763-.775.4556-1.64.6841-2.596.6841zm0-1.4268c.676 0 1.275-.1601 1.796-.4789.527-.3262.933-.7757 1.22-1.3486.293-.5802.439-1.2411.439-1.9838 0-.7489-.146-1.411-.439-1.9839-.287-.5802-.693-1.0298-1.22-1.3486-.521-.3262-1.12-.4886-1.796-.4886-.678 0-1.279.1624-1.806.4886-.522.3188-.928.7684-1.221 1.3486-.287.5729-.429 1.235-.429 1.9839 0 .7427.142 1.4036.429 1.9838.293.5729.699 1.0224 1.221 1.3486.527.3188 1.128.4789 1.806.4789zm7.62-8.8149h1.504v4.3292h-.625c0-.9247.16-1.7297.478-2.4138.32-.6902.775-1.2216 1.367-1.5929.593-.3714 1.289-.5571 2.089-.5571.716 0 1.351.1528 1.904.4594.554.3066.986.7586 1.298 1.3584.32.5924.478 1.3058.478 2.1401v6.2838h-1.562v-6.1274c0-.5802-.103-1.075-.312-1.4854-.201-.4105-.49-.7232-.869-.9382-.377-.215-.826-.3225-1.347-.3225-.559 0-1.054.1234-1.484.3714-.429.248-.764.5961-1.005 1.0456-.235.4435-.352.9517-.352 1.5246v5.9319h-1.562zm11.527 7.8181h2.187v2.189h-2.187zm11.495-11.4926h1.621v13.6816h-1.621zm6.07 5.0622h-1.757v-1.3877h1.757v-1.3095c0-.463.107-.8735.322-1.2314s.514-.6352.898-.8307c.385-.2015.824-.3029 1.318-.3029h1.826v1.3877h-1.728c-.319 0-.58.1014-.781.3029-.195.1955-.293.4533-.293.7721v1.2118h2.704v1.3877h-2.704v8.6194h-1.562zm11.541 10.359h1.484c.209 0 .408-.0684.596-.2053.189-.1307.335-.3066.439-.5277l.566-1.2313-3.856-9.7824h1.66l3.016 7.7985 2.89-7.7985h1.65l-4.54 11.5023c-.195.5021-.507.8991-.937 1.1923-.422.2932-.9.4398-1.435.4398h-1.533zm14.482-1.505c-.957 0-1.826-.2285-2.607-.6841-.774-.4557-1.383-1.0811-1.826-1.8763-.441-.8014-.663-1.6944-.663-2.6777 0-.9834.222-1.8727.663-2.668.443-.8013 1.052-1.4304 1.826-1.8861.781-.4556 1.65-.6841 2.607-.6841.956 0 1.823.2285 2.596.6841.781.4557 1.394 1.0848 1.836 1.8861.443.7953.663 1.6846.663 2.668 0 .9833-.22 1.8763-.663 2.6777-.442.7952-1.055 1.4206-1.836 1.8763-.773.4556-1.64.6841-2.596.6841zm0-1.4268c.677 0 1.276-.1601 1.796-.4789.527-.3262.935-.7757 1.22-1.3486.293-.5802.439-1.2411.439-1.9838 0-.7489-.146-1.411-.439-1.9839-.285-.5802-.693-1.0298-1.22-1.3486-.52-.3262-1.119-.4886-1.796-.4886s-1.279.1624-1.807.4886c-.519.3188-.927.7684-1.22 1.3486-.285.5729-.429 1.235-.429 1.9839 0 .7427.144 1.4036.429 1.9838.293.5729.701 1.0224 1.22 1.3486.528.3188 1.13.4789 1.807.4789zm15.832 1.1922h-1.504v-4.3292h.625c0 .9247-.159 1.7334-.478 2.4236-.319.6841-.774 1.2118-1.367 1.5831-.592.3714-1.289.5571-2.089.5571-.715 0-1.35-.1527-1.904-.4593-.553-.3066-.988-.7562-1.308-1.3486-.312-.5998-.469-1.3157-.469-2.15v-6.2838h1.562v6.1274c0 .5803.102 1.075.303 1.4855.209.4104.501.7231.879.9381s.827.3225 1.347.3225c.56 0 1.054-.1234 1.484-.3713.429-.248.761-.5925.995-1.0359.242-.4496.362-.9614.362-1.5343v-5.932h1.562zm16.348-13.6816h1.562v13.6816h-1.562zm-3.681 13.9162c-.93 0-1.759-.2187-2.489-.6548-.722-.4434-1.289-1.0616-1.699-1.8568-.402-.7952-.605-1.7041-.605-2.7265 0-1.0225.203-1.9314.605-2.7266.41-.7952.977-1.4109 1.699-1.847.73-.4434 1.559-.6646 2.489-.6646.859 0 1.618.1919 2.275.5766.658.3775 1.169.9125 1.533 1.6027.371.6841.563 1.4794.576 2.3845h-.645v1.3487h.645c-.013.9052-.205 1.7041-.576 2.3942-.364.6841-.875 1.218-1.533 1.6028-.657.3774-1.416.5668-2.275.5668zm.244-1.417c.672 0 1.267-.1601 1.787-.4789.521-.3261.925-.7757 1.21-1.3486.293-.5803.44-1.2448.44-1.9936 0-.7489-.147-1.411-.44-1.9839-.285-.5802-.689-1.0298-1.21-1.3486-.52-.3262-1.115-.4886-1.787-.4886-.663 0-1.252.1624-1.767.4886-.513.3188-.914.7684-1.2 1.3486-.286.5729-.43 1.235-.43 1.9839 0 .7488.144 1.4133.43 1.9936.286.5729.687 1.0225 1.2 1.3486.515.3188 1.104.4789 1.767.4789zm12.616 1.417c-.957 0-1.826-.2285-2.607-.6841-.775-.4557-1.382-1.0811-1.825-1.8763-.443-.8014-.664-1.6944-.664-2.6777 0-.9834.221-1.8727.664-2.668.443-.8013 1.05-1.4304 1.825-1.8861.781-.4556 1.65-.6841 2.607-.6841.956 0 1.822.2285 2.596.6841.781.4557 1.393 1.0848 1.836 1.8861.443.7953.664 1.6846.664 2.668 0 .9833-.221 1.8763-.664 2.6777-.443.7952-1.055 1.4206-1.836 1.8763-.774.4556-1.64.6841-2.596.6841zm0-1.4268c.677 0 1.275-.1601 1.796-.4789.527-.3262.933-.7757 1.22-1.3486.293-.5802.44-1.2411.44-1.9838 0-.7489-.147-1.411-.44-1.9839-.287-.5802-.693-1.0298-1.22-1.3486-.521-.3262-1.119-.4886-1.796-.4886-.678 0-1.279.1624-1.806.4886-.521.3188-.928.7684-1.221 1.3486-.286.5729-.429 1.235-.429 1.9839 0 .7427.143 1.4036.429 1.9838.293.5729.7 1.0224 1.221 1.3486.527.3188 1.128.4789 1.806.4789zm7.622-8.8149h1.503v4.3292h-.625c0-.9247.16-1.7297.479-2.4138.318-.6902.774-1.2216 1.366-1.5929.592-.3714 1.289-.5571 2.089-.5571.717 0 1.351.1528 1.904.4594s.986.7586 1.298 1.3584c.319.5924.479 1.3058.479 2.1401v6.2838h-1.562v-6.1274c0-.5802-.104-1.075-.313-1.4854-.201-.4105-.491-.7232-.868-.9382s-.827-.3225-1.348-.3225c-.56 0-1.054.1234-1.483.3714-.43.248-.766.5961-1.006 1.0456-.234.4435-.351.9517-.351 1.5246v5.9319h-1.562zm11.184.4202c.41 0 .728-.1563.956-.4691.227-.3127.342-.8074.342-1.4854h-1.201v-2.1402h2.275v2.0034c0 .6706-.098 1.2374-.293 1.7004-.195.4557-.472.7977-.83 1.0261-.351.2285-.769.3421-1.249.3421zm8.992 9.5869c-.476 0-.908-.1013-1.299-.3029-.384-.2089-.687-.4923-.907-.8502-.223-.3653-.332-.7684-.332-1.2118l-.01-6.2545h-1.757l.009-1.3877h1.084c.247 0 .445-.0782.596-.2346.156-.1563.234-.3554.234-.5961v-1.6124h1.406v2.4431h2.704l-.01 1.3877h-2.704l.01 6.1568c0 .3066.1.5631.302.772.208.2015.465.3029.771.3029h1.621v1.3877zm9.838-13.6816h1.503v3.1565 1.7787 3.0685h-.625c0-.9247.16-1.7297.479-2.4138.318-.6902.775-1.2216 1.366-1.5929.592-.3714 1.289-.5571 2.09-.5571.716 0 1.35.1528 1.903.4594s.986.7586 1.299 1.3584c.318.5924.478 1.3058.478 2.1401v6.2838h-1.562v-6.1274c0-.5802-.104-1.075-.312-1.4854-.202-.4105-.492-.7232-.869-.9382s-.826-.3225-1.347-.3225c-.561 0-1.055.1234-1.484.3714-.43.248-.765.5961-1.006 1.0456-.234.4435-.351.9517-.351 1.5246v5.9319h-1.562zm15.051 3.4399c.775 0 1.441.143 2.001.43.566.2798.999.6841 1.298 1.2118.307.5278.459 1.1532.459 1.8764v6.7235h-1.542v-3.7429h.586c0 .7953-.157 1.4952-.469 2.1011-.306.5998-.742 1.0616-1.308 1.3877-.566.3262-1.224.4887-1.972.4887-.638 0-1.214-.1234-1.728-.3714-.508-.248-.904-.59-1.191-1.0261s-.43-.9284-.43-1.4757c0-.5277.137-1.0163.41-1.4658.274-.4496.651-.8173 1.133-1.1044.482-.287 1.025-.463 1.63-.5277l2.616-.2932c.221-.0256.397-.1136.528-.2638.13-.1564.208-.3873.234-.6939l.058 2.0523-3.211.3518c-.346.0391-.654.1466-.928.3225-.267.1698-.474.3909-.625.6645-.15.2675-.224.5607-.224.8796 0 .3261.088.6156.263.8697.176.248.42.4398.733.5766.318.1368.683.2052 1.093.2052.541 0 1.021-.1112 1.445-.3323.423-.2284.752-.5436.986-.9479s.351-.8697.351-1.3975v-3.1761c0-.397-.091-.7427-.273-1.0359-.176-.2931-.43-.5179-.762-.6743-.331-.1624-.718-.2443-1.161-.2443-.449 0-.846.0721-1.191.215-.338.1368-.609.3225-.811.5571-.201.2345-.328.4849-.38.7524h-1.562c.084-.5411.299-1.0298.644-1.4659.352-.4434.81-.7915 1.377-1.0456.566-.2541 1.206-.3812 1.923-.3812zm5.474.2346h1.689l3.055 7.906 2.939-7.906h1.669l-3.934 10.0071h-1.464zm15.488 10.2417c-.943 0-1.796-.2248-2.558-.6743-.761-.4496-1.359-1.075-1.796-1.8764-.436-.8013-.654-1.7041-.654-2.707 0-.9772.222-1.8629.664-2.6581.443-.8014 1.044-1.4268 1.806-1.8764.768-.4556 1.614-.6841 2.538-.6841.95 0 1.794.2212 2.528.6646.736.4361 1.308 1.0518 1.718 1.847s.615 1.7041.615 2.7266v.3518h-8.317l.02-.4007c.007.7757.153 1.4561.439 2.0425.293.5802.697 1.0298 1.21 1.3486.515.3188 1.111.4789 1.787.4789.605 0 1.142-.1173 1.611-.3519.468-.2345.853-.5704 1.152-1.0065h1.739c-.248.5729-.59 1.0688-1.027 1.4854-.429.4104-.939.7293-1.532.9577-.592.2211-1.24.3323-1.943.3323zm-3.456-6.1274h6.756v.8697c0-.7488-.14-1.4109-.42-1.9838-.274-.5803-.66-1.0298-1.162-1.3486-.5-.3189-1.074-.4789-1.718-.4789-.67 0-1.266.1564-1.787.4691-.519.3127-.927.7525-1.22 1.3193-.285.5668-.429 1.2179-.429 1.9545zm16.153-4.1143h1.562v10.0071h-1.562zm-.078-3.6745h1.718v1.7786h-1.718zm8.27 13.6816c-.476 0-.908-.1013-1.299-.3029-.384-.2089-.687-.4923-.908-.8502-.222-.3653-.331-.7684-.331-1.2118l-.01-6.2545h-1.757l.009-1.3877h1.084c.246 0 .445-.0782.595-.2346.157-.1563.235-.3554.235-.5961v-1.6124h1.406v2.4431h2.704l-.01 1.3877h-2.704l.01 6.1568c0 .3066.1.5631.302.772.208.2015.465.3029.771.3029h1.621v1.3877zm4.184 1.9546c.41 0 .729-.1564.957-.4691.227-.3127.341-.8075.341-1.4855h-1.2v-2.1402h2.274v2.0034c0 .6707-.097 1.235-.293 1.6907-.195.463-.472.8074-.829 1.0359-.352.2284-.769.342-1.25.342zm10.732-.215h1.484c.209 0 .408-.0684.596-.2053.189-.1307.335-.3066.439-.5277l.566-1.2313-3.856-9.7824h1.66l3.016 7.7985 2.89-7.7985h1.65l-4.54 11.5023c-.195.5021-.507.8991-.937 1.1923-.422.2932-.9.4398-1.435.4398h-1.533zm14.482-1.505c-.957 0-1.826-.2285-2.607-.6841-.774-.4557-1.382-1.0811-1.825-1.8763-.442-.8014-.664-1.6944-.664-2.6777 0-.9834.222-1.8727.664-2.668.443-.8013 1.051-1.4304 1.825-1.8861.781-.4556 1.65-.6841 2.607-.6841.956 0 1.823.2285 2.596.6841.781.4557 1.394 1.0848 1.836 1.8861.443.7953.664 1.6846.664 2.668 0 .9833-.221 1.8763-.664 2.6777-.442.7952-1.055 1.4206-1.836 1.8763-.773.4556-1.64.6841-2.596.6841zm0-1.4268c.677 0 1.276-.1601 1.796-.4789.527-.3262.935-.7757 1.22-1.3486.293-.5802.44-1.2411.44-1.9838 0-.7489-.147-1.411-.44-1.9839-.285-.5802-.693-1.0298-1.22-1.3486-.52-.3262-1.119-.4886-1.796-.4886-.676 0-1.279.1624-1.806.4886-.52.3188-.928.7684-1.221 1.3486-.285.5729-.429 1.235-.429 1.9839 0 .7427.144 1.4036.429 1.9838.293.5729.701 1.0224 1.221 1.3486.527.3188 1.13.4789 1.806.4789zm15.832 1.1922h-1.504v-4.3292h.625c0 .9247-.159 1.7334-.478 2.4236-.319.6841-.774 1.2118-1.367 1.5831-.592.3714-1.289.5571-2.089.5571-.715 0-1.35-.1527-1.904-.4593-.553-.3066-.988-.7562-1.308-1.3486-.312-.5998-.469-1.3157-.469-2.15v-6.2838h1.562v6.1274c0 .5803.102 1.075.303 1.4855.209.4104.502.7231.879.9381.378.215.827.3225 1.347.3225.56 0 1.054-.1234 1.484-.3713.429-.248.761-.5925.995-1.0359.242-.4496.362-.9614.362-1.5343v-5.932h1.562zm12.874.2346c-.945 0-1.797-.2285-2.558-.6841-.761-.4557-1.361-1.0811-1.796-1.8763-.43-.8014-.645-1.6944-.645-2.6777 0-.9834.215-1.8727.645-2.668.435-.8013 1.035-1.4304 1.796-1.8861.761-.4556 1.613-.6841 2.558-.6841.748 0 1.435.143 2.06.43.63.2798 1.161.6805 1.591 1.2021.435.5216.748 1.1275.937 1.8177h-1.708c-.157-.4166-.375-.7757-.655-1.075-.28-.3066-.612-.5412-.995-.7036-.379-.1698-.789-.2541-1.23-.2541-.645 0-1.224.1624-1.738.4886-.508.3262-.905.7781-1.191 1.3584-.287.5802-.43 1.2374-.43 1.9741 0 .7292.143 1.384.43 1.9642.286.5803.683 1.0359 1.191 1.3682.514.3262 1.093.4887 1.738.4887.441 0 .851-.0819 1.23-.2444.383-.1698.715-.4043.995-.7036.28-.3066.498-.6682.655-1.0847h1.708c-.189.6902-.502 1.296-.937 1.8176-.43.5217-.961.9248-1.591 1.2118-.625.2798-1.312.4203-2.06.4203zm10.499-10.4763c.775 0 1.441.143 2.001.43.566.2798 1 .6841 1.299 1.2118.306.5278.458 1.1532.458 1.8764v6.7235h-1.542v-3.7429h.586c0 .7953-.156 1.4952-.469 2.1011-.306.5998-.742 1.0616-1.308 1.3877-.566.3262-1.224.4887-1.972.4887-.638 0-1.214-.1234-1.728-.3714-.507-.248-.904-.59-1.191-1.0261s-.429-.9284-.429-1.4757c0-.5277.136-1.0163.41-1.4658.273-.4496.65-.8173 1.132-1.1044.482-.287 1.025-.463 1.63-.5277l2.617-.2932c.22-.0256.396-.1136.527-.2638.13-.1564.208-.3873.234-.6939l.059 2.0523-3.212.3518c-.345.0391-.654.1466-.928.3225-.267.1698-.474.3909-.624.6645-.15.2675-.225.5607-.225.8796 0 .3261.088.6156.264.8697.175.248.419.4398.732.5766.318.1368.683.2052 1.093.2052.541 0 1.022-.1112 1.445-.3323.424-.2284.752-.5436.986-.9479s.352-.8697.352-1.3975v-3.1761c0-.397-.092-.7427-.274-1.0359-.176-.2931-.429-.5179-.761-.6743-.332-.1624-.719-.2443-1.162-.2443-.449 0-.846.0721-1.191.215-.338.1368-.609.3225-.81.5571-.202.2345-.329.4849-.381.7524h-1.562c.084-.5411.299-1.0298.644-1.4659.352-.4434.811-.7915 1.377-1.0456s1.207-.3812 1.923-.3812zm6.782.2346h1.504v4.3292h-.625c0-.9247.16-1.7297.478-2.4138.319-.6902.775-1.2216 1.367-1.5929.592-.3714 1.289-.5571 2.089-.5571.716 0 1.351.1528 1.904.4594s.986.7586 1.298 1.3584c.319.5924.479 1.3058.479 2.1401v6.2838h-1.562v-6.1274c0-.5802-.104-1.075-.313-1.4854-.201-.4105-.492-.7232-.869-.9382s-.826-.3225-1.347-.3225c-.56 0-1.054.1234-1.484.3714-.429.248-.765.5961-1.005 1.0456-.235.4435-.352.9517-.352 1.5246v5.9319h-1.562zm24.521-3.6745h1.562v13.6816h-1.562zm-3.681 13.9162c-.931 0-1.76-.2187-2.489-.6548-.722-.4434-1.289-1.0616-1.699-1.8568-.404-.7952-.605-1.7041-.605-2.7265 0-1.0225.201-1.9314.605-2.7266.41-.7952.977-1.4109 1.699-1.847.729-.4434 1.558-.6646 2.489-.6646.86 0 1.617.1919 2.275.5766.658.3775 1.168.9125 1.533 1.6027.371.6841.562 1.4794.576 2.3845h-.645v1.3487h.645c-.014.9052-.205 1.7041-.576 2.3942-.365.6841-.875 1.218-1.533 1.6028-.658.3774-1.415.5668-2.275.5668zm.245-1.417c.669 0 1.265-.1601 1.786-.4789.521-.3261.924-.7757 1.211-1.3486.292-.5803.439-1.2448.439-1.9936 0-.7489-.147-1.411-.439-1.9839-.287-.5802-.69-1.0298-1.211-1.3486-.521-.3262-1.117-.4886-1.786-.4886-.664 0-1.254.1624-1.767.4886-.514.3188-.914.7684-1.201 1.3486-.287.5729-.43 1.235-.43 1.9839 0 .7488.143 1.4133.43 1.9936.287.5729.687 1.0225 1.201 1.3486.513.3188 1.103.4789 1.767.4789zm12.615 1.417c-.957 0-1.826-.2285-2.607-.6841-.775-.4557-1.384-1.0811-1.825-1.8763-.443-.8014-.664-1.6944-.664-2.6777 0-.9834.221-1.8727.664-2.668.441-.8013 1.05-1.4304 1.825-1.8861.781-.4556 1.65-.6841 2.607-.6841.956 0 1.822.2285 2.597.6841.781.4557 1.392 1.0848 1.835 1.8861.442.7953.664 1.6846.664 2.668 0 .9833-.222 1.8763-.664 2.6777-.443.7952-1.054 1.4206-1.835 1.8763-.775.4556-1.641.6841-2.597.6841zm0-1.4268c.676 0 1.275-.1601 1.796-.4789.527-.3262.934-.7757 1.22-1.3486.293-.5802.44-1.2411.44-1.9838 0-.7489-.147-1.411-.44-1.9839-.286-.5802-.693-1.0298-1.22-1.3486-.521-.3262-1.12-.4886-1.796-.4886-.677 0-1.279.1624-1.806.4886-.521.3188-.928.7684-1.221 1.3486-.286.5729-.429 1.235-.429 1.9839 0 .7427.143 1.4036.429 1.9838.293.5729.7 1.0224 1.221 1.3486.527.3188 1.129.4789 1.806.4789zm6.285-8.8149h1.68l2.372 7.1926.224.8502.205-.8502 2.451-7.1926h1.493l2.49 7.1926.224.8502.205-.8502 2.324-7.1926h1.64l-3.456 10.0071h-1.542l-2.441-7.5249-.186-.6938-.166.6743-2.547 7.5444h-1.523zm17.363 0h1.503v4.3292h-.625c0-.9247.16-1.7297.479-2.4138.318-.6902.775-1.2216 1.366-1.5929.592-.3714 1.289-.5571 2.09-.5571.716 0 1.35.1528 1.903.4594s.986.7586 1.299 1.3584c.318.5924.478 1.3058.478 2.1401v6.2838h-1.562v-6.1274c0-.5802-.104-1.075-.312-1.4854-.202-.4105-.492-.7232-.869-.9382s-.826-.3225-1.347-.3225c-.561 0-1.055.1234-1.484.3714-.43.248-.765.5961-1.006 1.0456-.234.4435-.351.9517-.351 1.5246v5.9319h-1.562zm11.693-3.6745h1.561v13.6816h-1.561zm9.335 13.9162c-.957 0-1.826-.2285-2.607-.6841-.773-.4557-1.382-1.0811-1.825-1.8763-.442-.8014-.664-1.6944-.664-2.6777 0-.9834.222-1.8727.664-2.668.443-.8013 1.052-1.4304 1.825-1.8861.781-.4556 1.65-.6841 2.607-.6841.956 0 1.823.2285 2.596.6841.781.4557 1.394 1.0848 1.836 1.8861.443.7953.664 1.6846.664 2.668 0 .9833-.221 1.8763-.664 2.6777-.442.7952-1.055 1.4206-1.836 1.8763-.773.4556-1.64.6841-2.596.6841zm0-1.4268c.677 0 1.276-.1601 1.796-.4789.527-.3262.935-.7757 1.22-1.3486.293-.5802.44-1.2411.44-1.9838 0-.7489-.147-1.411-.44-1.9839-.285-.5802-.693-1.0298-1.22-1.3486-.52-.3262-1.119-.4886-1.796-.4886-.676 0-1.279.1624-1.806.4886-.52.3188-.928.7684-1.221 1.3486-.285.5729-.429 1.235-.429 1.9839 0 .7427.144 1.4036.429 1.9838.293.5729.701 1.0224 1.221 1.3486.527.3188 1.13.4789 1.806.4789zm11.146-9.0495c.775 0 1.442.143 2.001.43.566.2798 1 .6841 1.298 1.2118.307.5278.459 1.1532.459 1.8764v6.7235h-1.542v-3.7429h.586c0 .7953-.157 1.4952-.469 2.1011-.305.5998-.742 1.0616-1.308 1.3877-.566.3262-1.223.4887-1.972.4887-.637 0-1.213-.1234-1.728-.3714-.508-.248-.904-.59-1.191-1.0261-.286-.4361-.43-.9284-.43-1.4757 0-.5277.137-1.0163.41-1.4658.274-.4496.652-.8173 1.133-1.1044.482-.287 1.025-.463 1.63-.5277l2.616-.2932c.223-.0256.398-.1136.528-.2638.13-.1564.208-.3873.234-.6939l.059 2.0523-3.212.3518c-.344.0391-.654.1466-.928.3225-.266.1698-.474.3909-.624.6645-.149.2675-.225.5607-.225.8796 0 .3261.088.6156.264.8697.175.248.419.4398.732.5766.319.1368.683.2052 1.093.2052.541 0 1.023-.1112 1.445-.3323.423-.2284.752-.5436.986-.9479s.351-.8697.351-1.3975v-3.1761c0-.397-.09-.7427-.273-1.0359-.176-.2931-.43-.5179-.761-.6743-.332-.1624-.719-.2443-1.162-.2443-.449 0-.846.0721-1.191.215-.338.1368-.608.3225-.81.5571-.202.2345-.329.4849-.381.7524h-1.562c.085-.5411.3-1.0298.644-1.4659.352-.4434.81-.7915 1.377-1.0456.566-.2541 1.208-.3812 1.923-.3812zm14.465-3.4399h1.562v13.6816h-1.562zm-3.68 13.9162c-.931 0-1.761-.2187-2.49-.6548-.722-.4434-1.288-1.0616-1.698-1.8568-.404-.7952-.606-1.7041-.606-2.7265 0-1.0225.202-1.9314.606-2.7266.41-.7952.976-1.4109 1.698-1.847.729-.4434 1.559-.6646 2.49-.6646.859 0 1.617.1919 2.274.5766.658.3775 1.168.9125 1.533 1.6027.371.6841.563 1.4794.576 2.3845h-.644v1.3487h.644c-.013.9052-.205 1.7041-.576 2.3942-.365.6841-.875 1.218-1.533 1.6028-.657.3774-1.415.5668-2.274.5668zm.244-1.417c.67 0 1.265-.1601 1.786-.4789.521-.3261.924-.7757 1.211-1.3486.293-.5803.439-1.2448.439-1.9936 0-.7489-.146-1.411-.439-1.9839-.287-.5802-.69-1.0298-1.211-1.3486-.521-.3262-1.116-.4886-1.786-.4886-.664 0-1.253.1624-1.767.4886-.514.3188-.914.7684-1.201 1.3486-.287.5729-.43 1.235-.43 1.9839 0 .7488.143 1.4133.43 1.9936.287.5729.687 1.0225 1.201 1.3486.514.3188 1.103.4789 1.767.4789zm14.059-8.8247h1.562v10.0071h-1.562zm-.078-3.6745h1.718v1.7786h-1.718zm8.269 13.6816c-.474 0-.907-.1013-1.298-.3029-.384-.2089-.687-.4923-.908-.8502-.221-.3653-.332-.7684-.332-1.2118l-.01-6.2545h-1.757l.01-1.3877h1.084c.247 0 .445-.0782.595-.2346.156-.1563.234-.3554.234-.5961v-1.6124h1.406v2.4431h2.704l-.009 1.3877h-2.705l.01 6.1568c0 .3066.102.5631.303.772.209.2015.465.3029.771.3029h1.621v1.3877z" fill-opacity=".7"/><path d="m761.609 70.7031h1.504v3.1566 1.7786 3.0686h-.625c0-.9247.16-1.7297.478-2.4138.32-.6902.775-1.2216 1.367-1.593.593-.3713 1.289-.557 2.089-.557.716 0 1.351.1527 1.904.4593.554.3066.986.7586 1.298 1.3584.32.5925.479 1.3058.479 2.1402v6.2838h-1.562v-6.1274c0-.5803-.104-1.075-.313-1.4855-.201-.4104-.49-.7231-.869-.9381-.377-.215-.826-.3225-1.347-.3225-.559 0-1.054.1233-1.484.3713-.429.248-.764.5961-1.005 1.0457-.235.4434-.352.9516-.352 1.5245v5.932h-1.562zm15.744 13.9162c-.943 0-1.796-.2247-2.557-.6743-.762-.4495-1.36-1.075-1.796-1.8763-.436-.8014-.655-1.7041-.655-2.707 0-.9773.223-1.8629.664-2.6582.443-.8013 1.045-1.4268 1.806-1.8763.769-.4557 1.615-.6841 2.538-.6841.951 0 1.794.2211 2.529.6645.736.4361 1.308 1.0518 1.718 1.8471.41.7952.615 1.704.615 2.7265v.3518h-8.317l.019-.4006c.008.7757.154 1.4561.439 2.0424.293.5803.697 1.0298 1.211 1.3487.515.3188 1.11.4788 1.786.4788.606 0 1.143-.1173 1.611-.3518.469-.2346.853-.5705 1.152-1.0066h1.738c-.247.5729-.588 1.0689-1.025 1.4854-.43.4105-.94.7293-1.533.9578-.592.2211-1.24.3322-1.943.3322zm-3.455-6.1274h6.755v.8698c0-.7489-.139-1.4109-.42-1.9839-.273-.5802-.66-1.0298-1.161-1.3486s-1.074-.4788-1.719-.4788c-.669 0-1.265.1563-1.786.469-.52.3128-.927.7525-1.22 1.3193-.286.5668-.43 1.2179-.43 1.9546zm10.842-4.1142h1.562v3.3519l-.654.9773c.025-.8991.188-1.6809.488-2.3454.305-.6707.728-1.1862 1.269-1.5441.539-.3579 1.168-.5375 1.884-.5375h.352v1.632h-.41c-.593 0-1.111.1136-1.553.3421-.443.2284-.784.5534-1.025.9773-.234.4165-.351.9088-.351 1.4756v5.6779h-1.562zm11.148 10.2416c-.943 0-1.796-.2247-2.557-.6743-.762-.4495-1.361-1.075-1.797-1.8763-.435-.8014-.654-1.7041-.654-2.707 0-.9773.221-1.8629.664-2.6582.443-.8013 1.045-1.4268 1.806-1.8763.768-.4557 1.615-.6841 2.538-.6841.951 0 1.793.2211 2.529.6645.736.4361 1.308 1.0518 1.718 1.8471.41.7952.615 1.704.615 2.7265v.3518h-8.317l.019-.4006c.006.7757.153 1.4561.439 2.0424.293.5803.697 1.0298 1.211 1.3487.514.3188 1.109.4788 1.786.4788.606 0 1.143-.1173 1.611-.3518.469-.2346.853-.5705 1.152-1.0066h1.738c-.248.5729-.59 1.0689-1.025 1.4854-.43.4105-.941.7293-1.533.9578-.592.2211-1.24.3322-1.943.3322zm-3.455-6.1274h6.755v.8698c0-.7489-.14-1.4109-.42-1.9839-.273-.5802-.66-1.0298-1.161-1.3486-.502-.3188-1.074-.4788-1.719-.4788-.669 0-1.265.1563-1.786.469-.521.3128-.927.7525-1.22 1.3193-.287.5668-.43 1.2179-.43 1.9546z"/><path d="m759.973 86.8262h41.63v.9747h-41.63z"/></g><g mask="url(#c)"><path d="m1187.28-8.45117h-1104.3598c-2.6958 0-4.8811 2.18767-4.8811 4.8863 0 2.698629 2.1853 4.8863 4.8811 4.8863h1104.3598c2.7 0 4.88-2.187671 4.88-4.8863 0-2.69863-2.18-4.8863-4.88-4.8863z" fill="#fff" fill-opacity=".1"/><path d="m433.956-8.45117h-351.0358c-2.6958 0-4.8811 2.18767-4.8811 4.8863 0 2.698629 2.1853 4.8863 4.8811 4.8863h351.0358c2.696 0 4.881-2.187671 4.881-4.8863 0-2.69863-2.185-4.8863-4.881-4.8863z" fill="#21d789"/></g><circle cx="97.4638" cy="81.3192" fill="#21d789" fill-opacity=".4" r="22.7411"/><circle cx="97.4649" cy="81.3185" fill="#21d789" r="9.74619"/></g><path d="m0 3.77022h1276.75v-6.49747h-1276.75z" fill="#6c707e" mask="url(#b)"/></svg>